<?xml version="1.0" encoding="utf-8"?>
<!-- Generator: Adobe Illustrator 21.0.2, SVG Export Plug-In . SVG Version: 6.00 Build 0)  -->
<svg version="1.1" id="Layer_1" xmlns="http://www.w3.org/2000/svg" xmlns:xlink="http://www.w3.org/1999/xlink" x="0px" y="0px"
	 viewBox="0 0 512 512" style="enable-background:new 0 0 512 512;" xml:space="preserve">
<style type="text/css">
	.st0{opacity:0.1;fill:#687594;enable-background:new    ;}
	.st1{fill:#949EB4;}
	.st2{fill:#687594;}
	.st3{fill:#688B94;}
	.st4{fill:#FFFFFF;}
	.st5{fill:#DAD8E4;}
	.st6{fill:#293E6A;}
</style>
<path class="st0" d="M476.8,178.6c0-39.5-32-71.5-71.5-71.5c-30.6,0-56.7,19.2-66.9,46.2H79.8c-11,0-20,9-20,20v221.4
	c0,11,9,20,20,20h352.4c11,0,20-9,20-20V232.6C433.4,197.9,452.3,200.6,476.8,178.6L476.8,178.6z"/>
<path class="st1" d="M432.2,389.7H79.8c-11,0-20-9-20-20V148.3c0-11,9-20,20-20h352.4c11,0,20,9,20,20v221.4
	C452.2,380.8,443.2,389.7,432.2,389.7L432.2,389.7z"/>
<g>
	<path class="st2" d="M452.2,148.3v84.5c-12.5,10.9-28.9,17.5-46.9,17.5c-39.5,0-71.5-32-71.5-71.5c0-19.7,8-37.6,20.9-50.5h77.5
		C443.2,128.3,452.2,137.3,452.2,148.3L452.2,148.3z"/>
	<path class="st2" d="M452.2,148.3v25.2L274.3,310.2c-5.2,4-11.7,6.2-18.3,6.2s-13.1-2.2-18.3-6.2L59.8,173.5v-25.2
		c0-11.1,9-20,20-20h352.4C443.2,128.3,452.2,137.3,452.2,148.3z"/>
	<path class="st1" d="M262.1,223.7l190.1,146c0,11-9,20-20,20H79.8c-11,0-20-9-20-20l190.1-146C253.5,221,258.5,221,262.1,223.7
		L262.1,223.7z"/>
</g>
<path class="st2" d="M324.5,271.6l-50.2,38.6c-5.2,4-11.7,6.2-18.3,6.2s-13.1-2.2-18.3-6.2l-50.2-38.6l62.4-47.9
	c3.6-2.8,8.6-2.8,12.2,0L324.5,271.6z"/>
<path class="st1" d="M249.9,294.4l-190.1-146c0-11,9-20,20-20h352.4c11,0,20,9,20,20l-190.1,146
	C258.5,297.1,253.5,297.1,249.9,294.4z"/>
<path class="st3" d="M370.9,363.1h-32.1c-2.8,0-5-2.2-5-5V336c0-2.8,2.2-5,5-5h32.1c2.8,0,5,2.2,5,5v22.2
	C375.9,360.9,373.7,363.1,370.9,363.1z"/>
<path class="st4" d="M311.9,342.7H284c-2.8,0-5-2.2-5-5s2.2-5,5-5h27.8c2.8,0,5,2.2,5,5S314.6,342.7,311.9,342.7z M311.9,363.1H214
	c-2.8,0-5-2.2-5-5s2.2-5,5-5h97.8c2.8,0,5,2.2,5,5S314.6,363.1,311.9,363.1z"/>
<g>
	<circle class="st5" cx="405.3" cy="153.6" r="71.5"/>
	<path class="st6" d="M405.3,230.1c42.2,0,76.5-34.3,76.5-76.5s-34.3-76.5-76.5-76.5s-76.5,34.3-76.5,76.5
		c0,24.5,11.6,46.4,29.7,60.4L259,290.4c-1.8,1.4-4.3,1.4-6.1,0L65,146c1.1-7.2,7.3-12.7,14.8-12.7h229.4c2.8,0,5-2.2,5-5
		s-2.2-5-5-5H79.8c-13.8,0-25,11.2-25,25v221.4c0,13.8,11.2,25,25,25h352.4c13.8,0,25-11.2,25-25V237.6c0-2.8-2.2-5-5-5s-5,2.2-5,5
		v122L316.3,259l50.9-39.1C378.5,226.4,391.5,230.1,405.3,230.1L405.3,230.1z M195.7,259L64.8,359.6V158.5L195.7,259z M447,372
		c-1.1,7.2-7.3,12.7-14.8,12.7H79.8c-7.5,0-13.7-5.5-14.8-12.7l138.9-106.7l42.9,33c2.7,2.1,5.9,3.1,9.1,3.1s6.4-1,9.1-3.1l42.9-33
		L447,372z M338.8,153.6c0-36.7,29.8-66.5,66.5-66.5s66.5,29.8,66.5,66.5s-29.8,66.5-66.5,66.5S338.8,190.3,338.8,153.6z"/>
</g>
<path class="st4" d="M374.1,129.2l10.2,24.4L374.1,178c-1.7,4.1,2.4,8.3,6.6,6.5l61.6-26.3c4-1.7,4-7.5,0-9.2l-61.6-26.3
	C376.6,120.9,372.4,125.1,374.1,129.2z"/>
<path class="st1" d="M407.6,158.3l-30.7,13.1l7.4-17.8l-7.5-17.8l30.7,13.1C411.4,150.6,411.4,156.6,407.6,158.3z"/>
</svg>
