<svg xmlns="http://www.w3.org/2000/svg" viewBox="0 0 128 128">
  <defs/>
  <path d="M68.852 98.869l1.711 9.194a1.752 1.752 0 001.719 1.431 1.688 1.688 0 00.322-.031 1.749 1.749 0 001.4-2.04l-1.712-9.194a1.75 1.75 0 10-3.44.64z"/>
  <path d="M115.5 4.75h-103a7.759 7.759 0 00-7.75 7.75V84a7.759 7.759 0 007.75 7.75h38.314l-4.1 22h-6.381a7.759 7.759 0 00-7.75 7.75 1.751 1.751 0 001.75 1.75h59.334a1.751 1.751 0 001.75-1.75 7.759 7.759 0 00-7.75-7.75h-6.383l-4.1-22H115.5a7.759 7.759 0 007.75-7.75V12.5a7.759 7.759 0 00-7.75-7.75zm-23.96 115H36.46a4.257 4.257 0 013.873-2.5h47.334a4.257 4.257 0 013.873 2.5zm-13.816-6H50.276l4.1-22h19.25zM119.75 84a4.255 4.255 0 01-4.25 4.25h-103A4.255 4.255 0 018.25 84V12.5a4.255 4.255 0 014.25-4.25h103a4.255 4.255 0 014.25 4.25z"/>
  <path d="M115.5 10.75h-103a1.751 1.751 0 00-1.75 1.75V78a1.751 1.751 0 001.75 1.75h103a1.751 1.751 0 001.75-1.75V12.5a1.751 1.751 0 00-1.75-1.75zm-1.75 65.5h-99.5v-62h99.5z"/>
  <path d="M21.5 23h14.667a1.75 1.75 0 000-3.5H21.5a1.75 1.75 0 000 3.5zM21.5 29h19a1.75 1.75 0 000-3.5h-19a1.75 1.75 0 000 3.5zM21.5 35h36.75a1.75 1.75 0 000-3.5H21.5a1.75 1.75 0 000 3.5zM69.5 35h36.75a1.75 1.75 0 000-3.5H69.5a1.75 1.75 0 000 3.5zM21.5 41h13.917a1.75 1.75 0 000-3.5H21.5a1.75 1.75 0 000 3.5zM44.063 37.5a1.75 1.75 0 000 3.5h8.1a1.75 1.75 0 000-3.5zM21.5 47h53.75a1.75 1.75 0 000-3.5H21.5a1.75 1.75 0 000 3.5zM21.5 53h27.75a1.75 1.75 0 000-3.5H21.5a1.75 1.75 0 000 3.5zM82.25 51.25a1.751 1.751 0 00-1.75-1.75H60.125a1.75 1.75 0 000 3.5H80.5a1.751 1.751 0 001.75-1.75zM104.583 43.5H87.21a1.75 1.75 0 100 3.5h17.373a1.75 1.75 0 000-3.5zM21.5 59h36.75a1.75 1.75 0 000-3.5H21.5a1.75 1.75 0 000 3.5zM92.5 55.5H70.313a1.75 1.75 0 000 3.5H92.5a1.75 1.75 0 000-3.5zM21.5 65h8.75a1.75 1.75 0 000-3.5H21.5a1.75 1.75 0 000 3.5zM70.313 61.5H42.688a1.75 1.75 0 000 3.5h27.625a1.75 1.75 0 000-3.5zM21.5 71h31.083a1.75 1.75 0 000-3.5H21.5a1.75 1.75 0 000 3.5z"/>
</svg>
