<svg xmlns="http://www.w3.org/2000/svg" viewBox="0 0 512 512">
  <defs/>
  <path fill="#293e6a" d="M450.354 422.61C488.776 377.832 512 319.631 512 256 512 114.615 397.385 0 256 0 129.54 0 24.511 91.699 3.743 212.228c.209.643 68.546 210.382 446.611 210.382z" class="active-path" data-old_color="#514bbf" data-original="#514BBF"/>
  <path fill="#64b6ec" d="M296.598 203.088c0-48.259 14.64-93.099 39.721-130.32 0 0-258.598 25.795-334.626 212.651.002.021.005.041.008.061.096.146.53.804 1.319 1.914C16.234 305.995 143.667 515 421.065 451.659c10.521-8.886 20.322-18.599 29.289-29.049-89.69-32.588-153.756-118.571-153.756-219.522z" data-original="#64B6EC"/>
  <path fill="#4b9fdb" d="M299.361 167.088c5.342-34.519 18.241-66.541 36.959-94.319 0 0-258.598 25.795-334.626 212.651.002.021.005.041.008.061.096.146.53.804 1.319 1.914 4.87 6.854 25.256 39.57 62.941 74.983 25.922-107.485 119.655-188.515 233.399-195.29z" data-original="#4B9FDB"/>
  <path fill="#4b9fdb" d="M275.193 471.551c-80.695-79.464-103.315-205.421-47.29-310.429 25.529-47.848 63.764-84.562 108.322-108.198 0 0-247.839 43.639-334.531 232.499 5.463 47.731 24.052 91.471 52.065 127.523.55.402 80.711 58.705 221.434 58.605z" data-original="#4B9FDB"/>
  <path fill="#3188ca" d="M216.098 186.348c3.453-8.517 7.382-16.937 11.805-25.226 25.529-47.848 63.764-84.562 108.322-108.198 0 0-247.839 43.639-334.531 232.499 5.463 47.731 24.052 91.471 52.065 127.523.079.058 1.816 1.32 5.136 3.429 2.478-103.713 66.639-192.142 157.203-230.027z" data-original="#3188CA"/>
  <path fill="#a1ddfb" d="M256.072 367.559c-22.323-32.854-33.097-70.153-33.239-107.095 0 0-140.622 25.066-145.894 178.468l150.416 71.463C236.761 511.443 246.314 512 256 512c62.904 0 120.497-22.701 165.066-60.341-63.517 1.933-126.635-27.645-164.994-84.1z" data-original="#A1DDFB"/>
  <path fill="#7dcfff" d="M76.955 438.939c40.247-50.228 99.025-84.958 165.976-93.816-13.43-26.926-19.987-55.901-20.098-84.66 0 0-140.622 25.066-145.894 178.468z" data-original="#7DCFFF"/>
  <path fill="#7dcfff" d="M169.403 359.495c2.676-39.63 17.185-75.641 39.845-104.817 0 0-139.037 37.518-132.309 184.253 39.751 38.916 92.127 64.974 150.419 71.465-39.116-37.975-61.916-92.247-57.955-150.901z" data-original="#7DCFFF"/>
  <path fill="#64b6ec" d="M76.952 438.944c24.579-30.676 56.07-55.568 92.116-72.32.073-2.37.174-4.744.335-7.129 2.676-39.63 17.185-75.641 39.845-104.817 0 0-139.037 37.518-132.309 184.253.004.005.008.009.013.013z" data-original="#64B6EC"/>
  <path fill="#a1ddfb" d="M463 54c-4 13.667-105 9-105 29s75 40 56 61-84-57-262 11C69.8 186.41 21.55 252.49 1.68 285.45.57 275.79 0 265.96 0 256c0-14.93 1.28-29.56 3.74-43.78C25.59 175.17 78.45 104.3 184 54c55.91-26.64 110.27-37.94 155.95-39.91C416.01 10.81 468.96 33.637 463 54z" data-original="#A1DDFB"/>
  <path fill="#a1ddfb" d="M133.667 248.333C71.909 294.525 56.288 375.105 53.75 412.94c7.137 9.185 14.89 17.866 23.189 25.992 6.286-22.553 24.218-77.693 56.728-110.203 58.127-58.127 147.464-8.056 160-27.062C306.333 282.462 256 264.333 256 264.333s81.667-4 84.333-30c2.667-26-124.43-47.509-206.666 14z" data-original="#A1DDFB"/>
  <path fill="#7dcfff" d="M242.931 80.569C205.862 70.138 205 32 339.95 14.09 294.27 16.06 239.91 27.36 184 54 78.45 104.3 25.59 175.17 3.74 212.22 1.28 226.44 0 241.07 0 256c0 9.96.57 19.79 1.68 29.45C21.55 252.49 69.8 186.41 152 155c0 0 128-64 90.931-74.431zM206.278 215.218c-25.184 6.063-50.517 16.589-72.612 33.115C71.909 294.525 56.288 375.105 53.75 412.94c7.137 9.185 14.89 17.866 23.189 25.992 6.286-22.553 24.218-77.693 56.728-110.203 3.022-3.022 6.133-5.737 9.31-8.199l-.001-.014s50.025-46.517 23.025-52.346c-26.993-5.828-1.515-42.149 40.277-52.952z" data-original="#7DCFFF"/>
</svg>
