<svg xmlns="http://www.w3.org/2000/svg" viewBox="0 0 128 128">
  <defs/>
  <path d="M121.693 14.088H99.264V6.307a1.75 1.75 0 00-1.75-1.75h-7.462a1.749 1.749 0 00-1.75 1.75v7.781H69.481V6.307a1.749 1.749 0 00-1.75-1.75h-7.462a1.749 1.749 0 00-1.75 1.75v7.781H39.7V6.307a1.749 1.749 0 00-1.75-1.75h-7.464a1.75 1.75 0 00-1.75 1.75v7.781H6.307a1.749 1.749 0 00-1.75 1.75v105.855a1.749 1.749 0 001.75 1.75h115.386a1.749 1.749 0 001.75-1.75V15.838a1.749 1.749 0 00-1.75-1.75zM91.8 8.057h3.962v15.562H91.8zm-29.783 0h3.962v15.562h-3.96zm-29.783 0H36.2v15.562h-3.964zM8.057 17.588h20.679v7.781a1.75 1.75 0 001.75 1.75h7.462a1.749 1.749 0 001.75-1.75v-7.781h18.821v7.781a1.749 1.749 0 001.75 1.75h7.462a1.749 1.749 0 001.75-1.75v-7.781H88.3v7.781a1.749 1.749 0 001.75 1.75h7.462a1.75 1.75 0 001.75-1.75v-7.781h20.679v20.025H8.057zm0 102.355v-78.83h111.886v78.83z"/>
  <path d="M27.66 49.015a8.033 8.033 0 108.033 8.033 8.041 8.041 0 00-8.033-8.033zm0 12.566a4.533 4.533 0 114.533-4.533 4.537 4.537 0 01-4.533 4.533zM51.887 49.015a8.033 8.033 0 108.033 8.033 8.042 8.042 0 00-8.033-8.033zm0 12.566a4.533 4.533 0 114.533-4.533 4.538 4.538 0 01-4.533 4.533zM76.113 49.015a8.033 8.033 0 108.033 8.033 8.042 8.042 0 00-8.033-8.033zm0 12.566a4.533 4.533 0 114.533-4.533 4.537 4.537 0 01-4.533 4.533zM100.34 49.015a8.033 8.033 0 108.032 8.033 8.041 8.041 0 00-8.032-8.033zm0 12.566a4.533 4.533 0 114.532-4.533 4.537 4.537 0 01-4.532 4.533zM27.66 72.5a8.034 8.034 0 108.033 8.033A8.042 8.042 0 0027.66 72.5zm0 12.567a4.534 4.534 0 114.533-4.534 4.538 4.538 0 01-4.533 4.529zM51.887 72.5a8.034 8.034 0 108.033 8.033 8.043 8.043 0 00-8.033-8.033zm0 12.567a4.534 4.534 0 114.533-4.534 4.539 4.539 0 01-4.533 4.529zM76.113 72.5a8.034 8.034 0 108.033 8.033 8.043 8.043 0 00-8.033-8.033zm0 12.567a4.534 4.534 0 114.533-4.534 4.538 4.538 0 01-4.533 4.529zM100.34 72.5a8.034 8.034 0 108.032 8.033 8.042 8.042 0 00-8.032-8.033zm0 12.567a4.534 4.534 0 114.532-4.534 4.538 4.538 0 01-4.532 4.529zM27.66 95.976a8.033 8.033 0 108.033 8.033 8.041 8.041 0 00-8.033-8.033zm0 12.566a4.533 4.533 0 114.533-4.533 4.537 4.537 0 01-4.533 4.533zM51.887 95.976a8.033 8.033 0 108.033 8.033 8.042 8.042 0 00-8.033-8.033zm0 12.566a4.533 4.533 0 114.533-4.533 4.538 4.538 0 01-4.533 4.533zM76.113 95.976a8.033 8.033 0 108.033 8.033 8.042 8.042 0 00-8.033-8.033zm0 12.566a4.533 4.533 0 114.533-4.533 4.537 4.537 0 01-4.533 4.533zM100.34 95.976a8.033 8.033 0 108.032 8.033 8.041 8.041 0 00-8.032-8.033zm0 12.566a4.533 4.533 0 114.532-4.533 4.537 4.537 0 01-4.532 4.533z"/>
</svg>
