<svg xmlns="http://www.w3.org/2000/svg" viewBox="0 0 496 496">
  <defs/>
  <path d="M472 48H72c-13.255 0-24 10.745-24 24v8c-13.255 0-24 10.745-24 24v8c-13.255 0-24 10.745-24 24v288c0 13.255 10.745 24 24 24h400c13.255 0 24-10.745 24-24v-8c13.255 0 24-10.745 24-24v-8c13.255 0 24-10.745 24-24V72c0-13.255-10.745-24-24-24zm-40 376c0 4.418-3.582 8-8 8H24c-4.418 0-8-3.582-8-8V217.6l129.408 186.952c2.516 3.632 7.5 4.536 11.132 2.02.789-.547 1.473-1.231 2.02-2.02L296 206.056l136 196.448V424zm0-49.6L302.568 187.448c-2.8-3.632-8.015-4.306-11.647-1.505-.564.435-1.07.941-1.505 1.505L152 385.944 16 189.496V136c0-4.418 3.582-8 8-8h400c4.418 0 8 3.582 8 8v238.4zm24 17.6c0 4.418-3.582 8-8 8V136c0-13.255-10.745-24-24-24H40v-8c0-4.418 3.582-8 8-8h400c4.418 0 8 3.582 8 8v288zm24-32c0 4.418-3.582 8-8 8V104c0-13.255-10.745-24-24-24H64v-8c0-4.418 3.582-8 8-8h400c4.418 0 8 3.582 8 8v288z"/>
  <path d="M64 144c-17.673 0-32 14.327-32 32s14.327 32 32 32 32-14.327 32-32-14.327-32-32-32zm0 48c-8.837 0-16-7.163-16-16s7.163-16 16-16 16 7.163 16 16-7.163 16-16 16z"/>
</svg>
