<svg xmlns="http://www.w3.org/2000/svg" viewBox="0 0 512 512">
  <defs/>
  <path d="M477.62 0H238.687c-4.71 0-8.533 3.814-8.533 8.533v11.345L122.715.178c-2.21-.41-4.523.068-6.383 1.365-1.86 1.28-3.132 3.26-3.541 5.478L25.989 480.375c-.853 4.642 2.21 9.088 6.852 9.933l117.504 21.555c.503.085 1.024.137 1.536.137 1.724 0 3.413-.512 4.847-1.51 1.86-1.28 3.14-3.251 3.541-5.478l69.884-381.06v379.516c0 4.719 3.823 8.533 8.533 8.533H477.62c4.719 0 8.533-3.814 8.533-8.533V8.533c0-4.719-3.814-8.533-8.533-8.533zM145.029 493.533L44.31 475.067l83.729-456.568 100.719 18.466-83.729 456.568zM247.22 17.067h102.4v477.867h-102.4V17.067zm221.867 477.866h-102.4V17.067h102.4v477.866z"/>
  <path d="M417.889 452.267c18.825 0 34.133-15.309 34.133-34.133S436.714 384 417.889 384s-34.133 15.309-34.133 34.133 15.309 34.134 34.133 34.134zm0-51.2c9.412 0 17.067 7.654 17.067 17.067s-7.654 17.067-17.067 17.067c-9.412 0-17.067-7.654-17.067-17.067s7.655-17.067 17.067-17.067zM392.289 179.2h51.2c4.71 0 8.533-3.814 8.533-8.533s-3.823-8.533-8.533-8.533h-51.2c-4.71 0-8.533 3.814-8.533 8.533s3.823 8.533 8.533 8.533zM392.289 145.067h51.2c4.71 0 8.533-3.814 8.533-8.533S448.2 128 443.489 128h-51.2c-4.71 0-8.533 3.814-8.533 8.533s3.823 8.534 8.533 8.534zM392.289 110.933h51.2c4.71 0 8.533-3.814 8.533-8.533s-3.823-8.533-8.533-8.533h-51.2c-4.71 0-8.533 3.814-8.533 8.533s3.823 8.533 8.533 8.533zM392.289 76.8h51.2c4.71 0 8.533-3.814 8.533-8.533s-3.823-8.533-8.533-8.533h-51.2c-4.71 0-8.533 3.814-8.533 8.533s3.823 8.533 8.533 8.533zM298.423 384c-18.825 0-34.133 15.309-34.133 34.133s15.309 34.133 34.133 34.133 34.133-15.309 34.133-34.133S317.247 384 298.423 384zm0 51.2c-9.412 0-17.067-7.654-17.067-17.067s7.654-17.067 17.067-17.067c9.412 0 17.067 7.654 17.067 17.067s-7.655 17.067-17.067 17.067zM324.023 162.133h-51.2c-4.71 0-8.533 3.814-8.533 8.533s3.823 8.533 8.533 8.533h51.2c4.71 0 8.533-3.814 8.533-8.533s-3.823-8.533-8.533-8.533zM324.023 128h-51.2c-4.71 0-8.533 3.814-8.533 8.533s3.823 8.533 8.533 8.533h51.2c4.71 0 8.533-3.814 8.533-8.533S328.733 128 324.023 128zM324.023 93.867h-51.2c-4.71 0-8.533 3.814-8.533 8.533s3.823 8.533 8.533 8.533h51.2c4.71 0 8.533-3.814 8.533-8.533s-3.823-8.533-8.533-8.533zM324.023 59.733h-51.2c-4.71 0-8.533 3.814-8.533 8.533s3.823 8.533 8.533 8.533h51.2c4.71 0 8.533-3.814 8.533-8.533s-3.823-8.533-8.533-8.533zM114.68 375.18c-8.96-1.638-18.048.307-25.549 5.487-7.501 5.171-12.544 12.971-14.182 21.931-3.396 18.517 8.9 36.343 27.418 39.74 2.074.375 4.156.563 6.221.563 6.861 0 13.56-2.065 19.319-6.05 7.509-5.171 12.544-12.971 14.182-21.931 3.397-18.518-8.9-36.344-27.409-39.74zm10.633 36.651c-.828 4.497-3.345 8.388-7.1 10.974-3.746 2.594-8.286 3.575-12.774 2.748-9.25-1.698-15.403-10.607-13.705-19.866.819-4.497 3.337-8.388 7.091-10.982 2.884-1.988 6.229-3.021 9.66-3.021 1.033 0 2.074.094 3.115.282 9.258 1.697 15.403 10.606 13.713 19.865zM176.805 178.37l-50.364-9.242c-4.634-.896-9.079 2.21-9.933 6.844s2.219 9.088 6.852 9.933l50.355 9.242c.521.102 1.041.145 1.553.145 4.045 0 7.629-2.876 8.38-6.989.862-4.634-2.21-9.088-6.843-9.933zM182.955 144.795l-50.355-9.233c-4.642-.896-9.079 2.21-9.933 6.844-.845 4.642 2.219 9.088 6.852 9.933l50.364 9.233c.521.102 1.033.145 1.545.145 4.045 0 7.629-2.876 8.38-6.989.852-4.642-2.211-9.088-6.853-9.933zM135.678 118.764l50.364 9.233c.521.102 1.033.145 1.545.145 4.045 0 7.629-2.884 8.38-6.989.853-4.642-2.21-9.088-6.852-9.933l-50.364-9.233c-4.634-.887-9.079 2.219-9.924 6.844-.855 4.642 2.217 9.088 6.851 9.933zM141.832 85.188l50.364 9.233c.521.102 1.033.145 1.545.145 4.045 0 7.629-2.876 8.38-6.989.853-4.642-2.21-9.088-6.852-9.933l-50.355-9.233c-4.642-.879-9.079 2.21-9.933 6.844-.846 4.643 2.217 9.088 6.851 9.933zM409.356 221.867v119.467c0 4.719 3.823 8.533 8.533 8.533 4.71 0 8.533-3.814 8.533-8.533V221.867c0-4.719-3.823-8.533-8.533-8.533-4.71-.001-8.533 3.814-8.533 8.533zM306.956 341.333V221.867c0-4.719-3.823-8.533-8.533-8.533-4.71 0-8.533 3.814-8.533 8.533v119.467c0 4.719 3.823 8.533 8.533 8.533 4.71 0 8.533-3.815 8.533-8.534zM141.272 220.841c-4.659-.879-9.079 2.219-9.933 6.852l-21.547 117.504c-.853 4.642 2.21 9.088 6.852 9.933.521.102 1.033.145 1.545.145 4.045 0 7.629-2.876 8.38-6.989l21.555-117.513c.845-4.641-2.218-9.079-6.852-9.932z"/>
</svg>
