<?xml version="1.0" encoding="utf-8"?>
<!-- Generator: Adobe Illustrator 21.0.2, SVG Export Plug-In . SVG Version: 6.00 Build 0)  -->
<svg version="1.1" id="Layer_1" xmlns="http://www.w3.org/2000/svg" xmlns:xlink="http://www.w3.org/1999/xlink" x="0px" y="0px"
	 viewBox="0 0 163.9 273.8" style="enable-background:new 0 0 163.9 273.8;" xml:space="preserve">
<style type="text/css">
	.st0{fill:#FFFFFF;}
	.st1{display:none;}
</style>
<g>
	<path class="st0" d="M13.5,38.2H0V21.6c10.6-1.1,17-8.3,17.5-19.8h17v191.8h-21V38.2z"/>
	<path class="st0" d="M54.1,70.7V40.5c0-11.2,0.3-13.8,1.7-19.8C59,7.2,69.7,0,85.8,0c10.1,0,18.7,3.2,23.9,8.6
		c2.9,3.2,4.9,7.2,6.3,12.1c1.1,5.8,1.4,8.3,1.4,19.8v19c0,14.4-2,21.9-8.9,32.2l-24.7,36.8c-4,6.3-5.7,9.2-7.2,12.7
		c-1.7,4.6-2.6,9.2-2.6,15v18.1h42.3v19.3H51.8v-42.3c0-10.4,3.2-18.7,11.2-30.8l24.2-35.9c8.1-11.8,9.2-15.5,9.2-27v-17
		c0-5.5-0.3-8.6-0.3-11.2C95.6,22.7,91.8,19,85.8,19c-3.5,0-7.2,2-8.6,4.6c-0.9,1.4-1.4,3.5-1.4,5.8c-0.3,3.2-0.6,3.5-0.6,11.2v30.2
		H54.1V70.7z"/>
	<path class="st0" d="M141.1,38.2h-13.5V21.6c10.6-1.1,17-8.3,17.5-19.8h17v191.8h-21V38.2z"/>
	<g>
		<path class="st0" d="M13.5,241.8c0-0.3,0.2-0.5,0.5-0.5h20.9c0.3,0,0.5,0.2,0.5,0.5v5.1c0,0.3-0.2,0.5-0.5,0.5h-14
			c-0.2,0-0.3,0.1-0.3,0.3v6.5c0,0.2,0.1,0.3,0.3,0.3h11.7c0.3,0,0.5,0.2,0.5,0.5v5.1c0,0.3-0.2,0.5-0.5,0.5H20.8
			c-0.2,0-0.3,0.1-0.3,0.3v6.7c0,0.2,0.1,0.3,0.3,0.3h14c0.3,0,0.5,0.2,0.5,0.5v5.1c0,0.3-0.2,0.5-0.5,0.5H14
			c-0.3,0-0.5-0.2-0.5-0.5V241.8z"/>
		<path class="st0" d="M52.5,268.9c0-0.3,0-0.4,0.2-0.7l11.4-13.6c1.2-1.4,1.9-2.8,1.9-4.5c0-2.1-1.3-3.7-3.5-3.7
			c-2.2,0-3.5,1.3-3.8,3.8c0,0.3-0.2,0.4-0.5,0.4l-5.3-0.9c-0.3,0-0.4-0.3-0.4-0.6c0.3-4.5,4-8.4,10.2-8.4s10,4,10,9.3
			c0,3.1-1.2,5.6-3.3,7.9L61,268v0.1h11.4c0.3,0,0.5,0.2,0.5,0.5v4.7c0,0.3-0.2,0.5-0.5,0.5H53c-0.3,0-0.5-0.2-0.5-0.5V268.9z"/>
		<path class="st0" d="M79.5,268.9c0-0.3,0-0.4,0.2-0.7l11.4-13.6c1.2-1.4,1.9-2.8,1.9-4.5c0-2.1-1.3-3.7-3.5-3.7s-3.5,1.3-3.8,3.8
			c0,0.3-0.2,0.4-0.5,0.4l-5.3-0.9c-0.3,0-0.4-0.3-0.4-0.6c0.3-4.5,4-8.4,10.2-8.4s10,4,10,9.3c0,3.1-1.2,5.6-3.3,7.9L87.9,268v0.1
			h11.4c0.3,0,0.5,0.2,0.5,0.5v4.7c0,0.3-0.2,0.5-0.5,0.5H79.9c-0.3,0-0.5-0.2-0.5-0.5L79.5,268.9L79.5,268.9z"/>
		<path class="st0" d="M106.6,241.8c0-0.3,0.2-0.5,0.5-0.5h5.7c0.3,0,0.6,0.1,0.8,0.5l11.5,20.5h0.2v-20.5c0-0.3,0.2-0.5,0.5-0.5
			h5.4c0.3,0,0.5,0.2,0.5,0.5v31.6c0,0.3-0.2,0.5-0.5,0.5h-5.7c-0.4,0-0.6-0.1-0.8-0.5L113.2,253H113v20.4c0,0.3-0.2,0.5-0.5,0.5
			h-5.4c-0.3,0-0.5-0.2-0.5-0.5V241.8z"/>
		<path class="st0" d="M139.2,241.8c0-0.3,0.2-0.5,0.5-0.5h12.1c5.7,0,9.7,2.4,11.2,7.3c0.6,1.8,0.9,3.6,0.9,9
			c0,5.3-0.3,7.1-0.9,8.9c-1.6,4.9-5.6,7.3-11.2,7.3h-12.1c-0.3,0-0.5-0.2-0.5-0.5V241.8z M146.6,267.5h3.7c3.3,0,5.2-1,6-3.6
			c0.3-1,0.5-2.2,0.5-6.4c0-4.2-0.2-5.5-0.5-6.4c-0.8-2.6-2.8-3.6-6-3.6h-3.7c-0.2,0-0.3,0.1-0.3,0.3v19.4
			C146.3,267.4,146.4,267.5,146.6,267.5z"/>
	</g>
	<rect x="13.5" y="212.8" class="st0" width="148.6" height="9.6"/>
</g>
<path class="st1" d="M296,162"/>
</svg>
