<?xml version="1.0" encoding="utf-8"?>
<!-- Generator: Adobe Illustrator 21.0.2, SVG Export Plug-In . SVG Version: 6.00 Build 0)  -->
<svg version="1.1" id="Capa_1" xmlns="http://www.w3.org/2000/svg" xmlns:xlink="http://www.w3.org/1999/xlink" x="0px" y="0px"
	 viewBox="0 0 512 512" style="enable-background:new 0 0 512 512;" xml:space="preserve">
<style type="text/css">
	.st0{fill:#FCFCFC;}
</style>
<g>
	<g>
		<path class="st0" d="M243.6,32.5c2.4,0,4.4-2,4.4-4.4s-2-4.4-4.4-4.4C122.7,23.7,24.4,122,24.4,242.9c0,2.4,2,4.4,4.4,4.4
			s4.4-2,4.4-4.4C33.2,126.8,127.6,32.5,243.6,32.5z"/>
		<path class="st0" d="M243.6,86c-2.4,0-4.4,2-4.4,4.4c0,2.4,2,4.4,4.4,4.4c81.7,0,148.2,66.5,148.2,148.2c0,2.4,2,4.4,4.4,4.4
			s4.4-2,4.4-4.4C400.4,156.4,330.1,86,243.6,86z"/>
		<path class="st0" d="M243.6,153.2c-49.4,0-89.6,40.2-89.6,89.6c0,2.4,2,4.4,4.4,4.4c2.4,0,4.4-2,4.4-4.4
			c0-44.6,36.3-80.9,80.9-80.9c2.4,0,4.4-2,4.4-4.4S246,153.2,243.6,153.2z"/>
		<path class="st0" d="M510,438.5l-63-63c25.8-39.8,39.4-85.6,39.4-132.6c0-64.9-25.3-125.9-71.1-171.7C369.4,25.3,308.4,0,243.6,0
			S117.7,25.3,71.8,71.1C26,117,0.7,178,0.7,242.9S26,368.7,71.8,414.6c45.9,45.9,106.9,71.1,171.7,71.1
			c46.2,0,91.3-13.3,130.7-38.5l63.5,63.5c0.8,0.8,1.9,1.3,3.1,1.3c0.4,0,0.8-0.1,1.2-0.2c1.5-0.4,2.7-1.6,3.1-3.2l12.1-50.7
			l50.7-12.1c1.5-0.4,2.8-1.5,3.2-3.1C511.6,441.2,511.1,439.6,510,438.5z M399.1,459.7l10.4-43.4l21.3,21.3L420.4,481L399.1,459.7z
			 M377.7,438.3l10.4-43.4l14.2,14.2l-10.4,43.4L377.7,438.3z M340.6,310.2c13.6-19.8,21.1-43.6,21.1-67.4
			c0-65.2-53-118.2-118.2-118.2c-65.2,0-118.2,53-118.2,118.2s53,118.2,118.2,118.2c23.5,0,46.2-6.9,65.8-20l40.9,40.9
			c-30.6,23.4-68.3,36.2-106.6,36.2c-96.7,0-175.3-78.6-175.3-175.3S146.9,67.5,243.6,67.5s175.3,78.6,175.3,175.3
			c0,38.8-13.3,77-37.4,108.2L340.6,310.2z M230.9,256.5c-1.7,1.7-1.7,4.5,0,6.2l16.1,16.1c-1.2,0.1-2.3,0.2-3.4,0.2
			c-19.9,0-36.1-16.2-36.1-36.1c0-19.9,16.2-36.1,36.1-36.1s36.1,16.2,36.1,36.1c0,1.7-0.2,3.8-0.6,5.8L262,231.6
			c-0.8-0.8-1.9-1.3-3.1-1.3c-1.2,0-2.3,0.5-3.1,1.3L230.9,256.5z M243.6,198c-24.7,0-44.8,20.1-44.8,44.8s20.1,44.8,44.8,44.8
			c3.6,0,7.7-0.6,10.9-1.4l48.5,48.5c-17.8,11.5-38.2,17.5-59.5,17.5c-60.4,0-109.5-49.1-109.5-109.5s49.1-109.5,109.5-109.5
			c60.4,0,109.5,49.1,109.5,109.5c0,21.5-6.6,43-18.7,61.1l-48-48c1.3-4.5,2-9.2,2-13.1C288.4,218.1,268.3,198,243.6,198z
			 M240.1,259.6l4.1-4.1l102.4,102.4c0.9,0.9,2,1.3,3.1,1.3s2.2-0.4,3.1-1.3c1.7-1.7,1.7-4.5,0-6.2L250.4,249.3l8.5-8.5l138.3,138.3
			l-12.5,3c0,0,0,0-0.1,0c0,0-0.1,0-0.1,0c-1.5,0.4-2.7,1.6-3.1,3.2l-3,12.5L240.1,259.6z M394.2,388.7l43.4-10.4l31.7,31.7
			l-43.4,10.4L394.2,388.7z M9.4,242.9c0-129.1,105-234.1,234.1-234.1s234.1,105,234.1,234.1c0,44.9-12.8,88.5-37.2,126.6
			c-0.8-0.3-1.7-0.4-2.6-0.2l-30.8,7.4l-19.4-19.4c25.8-32.9,39.9-73.4,39.9-114.4c0-101.5-82.6-184-184-184
			c-101.5,0-184,82.6-184,184s82.6,184,184,184c40.6,0,80.6-13.7,112.9-38.7l19.6,19.6l-7.4,30.8c-0.2,0.6-0.1,1.3,0,1.9
			c-37.8,23.9-80.9,36.5-125,36.5C114.5,477,9.4,372,9.4,242.9z M438.4,499l-10.8-10.8l10.4-43.4l10.8,10.8L438.4,499z M455,449.5
			l-21.9-21.9l43.4-10.4l21.9,21.9L455,449.5z"/>
	</g>
</g>
</svg>
