<?xml version="1.0" encoding="utf-8"?>
<!-- Generator: Adobe Illustrator 21.0.2, SVG Export Plug-In . SVG Version: 6.00 Build 0)  -->
<svg version="1.1" id="Capa_1" xmlns="http://www.w3.org/2000/svg" xmlns:xlink="http://www.w3.org/1999/xlink" x="0px" y="0px"
	 viewBox="0 0 512 512" style="enable-background:new 0 0 512 512;" xml:space="preserve">
<style type="text/css">
	.st0{fill:#FFFFFF;}
</style>
<g>
	<g>
		<g>
			<path class="st0" d="M104.3,448.4c-5.5,0-10,4.5-10,10v43.5c0,5.5,4.5,10,10,10s10-4.5,10-10v-43.5
				C114.3,452.9,109.8,448.4,104.3,448.4z"/>
		</g>
	</g>
	<g>
		<g>
			<path class="st0" d="M464.2,259.3h-18.5c5.1-7.4,8.2-16.4,8.2-26.2v-6.6c0-25.4-20.7-46.1-46.1-46.1s-46.1,20.7-46.1,46.1v6.6
				c0,9.1,2.7,17.6,7.2,24.8c-37-7-65-39.5-65-78.4v-4.7c0-7.9-3.1-15.3-8.8-20.8c-5.7-5.5-13.2-8.4-21.1-8.1
				c-2.7,0.1-5.4,0.6-7.9,1.4V96.8l103.4-37.4c4-1.4,6.6-5.2,6.6-9.4s-2.6-8-6.6-9.4l-110-39.8c-3.1-1.1-6.5-0.7-9.1,1.2
				c-2.7,1.9-4.3,4.9-4.3,8.2v33.8v45.8v57.5c-2.5-0.8-5.1-1.3-7.9-1.4c-7.9-0.3-15.4,2.6-21.1,8.1c-5.7,5.5-8.8,12.9-8.8,20.8v4.7
				c0,38.9-28,71.4-65,78.4c4.6-7.2,7.2-15.6,7.2-24.8v-6.6c0-25.4-20.7-46.1-46.1-46.1s-46.1,20.7-46.1,46.1v6.6
				c0,9.7,3,18.7,8.2,26.2H47.8C21.5,259.3,0,280.8,0,307.1v113.8c0,17.4,14.1,31.5,31.5,31.5c5.5,0,10-4.5,10-10s-4.5-10-10-10
				c-6.3,0-11.5-5.2-11.5-11.5V307.1c0-15.3,12.5-27.8,27.8-27.8h80.5c55,0,99.8-44.8,99.8-99.8v-4.7c0-2.4,1-4.7,2.7-6.4
				c1.8-1.7,4.1-2.6,6.5-2.5c4.7,0.2,8.6,4.4,8.6,9.4v4.3c0,53.2-35.9,99.9-87.3,113.7c-4.4,1.2-7.4,5.1-7.4,9.7v94.1H59h-1.2v-85
				c0-5.5-4.5-10-10-10s-10,4.5-10,10v95c0,5.5,4.5,10,10,10H49v85c0,5.5,4.5,10,10,10s10-4.5,10-10v-85h70.8v85c0,5.5,4.5,10,10,10
				s10-4.5,10-10v-85h1.5c5.5,0,10-4.5,10-10v-96.6c31.8-10.4,58-31.9,74.7-59.4v105.5c0,5.5,4.5,10,10,10c5.5,0,10-4.5,10-10V250.8
				c16.7,27.5,42.9,49,74.7,59.4v96.6c0,5.5,4.5,10,10,10h1.5v85c0,5.5,4.5,10,10,10s10-4.5,10-10v-85H443v85c0,5.5,4.5,10,10,10
				s10-4.5,10-10v-85h1.2c5.5,0,10-4.5,10-10v-95c0-5.5-4.5-10-10-10s-10,4.5-10,10v85H453h-92.3v-94.1c0-4.5-3-8.5-7.4-9.7
				c-51.4-13.7-87.3-60.5-87.3-113.7v-4.3c0-5,3.8-9.2,8.6-9.4c2.4-0.1,4.8,0.8,6.5,2.5c1.8,1.7,2.7,4,2.7,6.4v4.7
				c0,55,44.8,99.8,99.8,99.8h80.5c15.3,0,27.8,12.5,27.8,27.8v17.1c0,5.5,4.5,10,10,10s10-4.5,10-10v-17.1
				C512,280.8,490.5,259.3,464.2,259.3z M266,43.9V24.3l70.6,25.6L266,75.5V43.9z M130.4,233.2c0,14.4-11.7,26.1-26.1,26.1
				s-26.1-11.7-26.1-26.1v-6.6c0-14.4,11.7-26.1,26.1-26.1s26.1,11.7,26.1,26.1V233.2z M433.8,233.2c0,14.4-11.7,26.1-26.1,26.1
				c-14.4,0-26.1-11.7-26.1-26.1v-6.6c0-14.4,11.7-26.1,26.1-26.1c14.4,0,26.1,11.7,26.1,26.1V233.2z"/>
		</g>
	</g>
	<g>
		<g>
			<path class="st0" d="M509.1,357.2c-1.9-1.9-4.4-2.9-7.1-2.9s-5.2,1.1-7.1,2.9c-1.9,1.9-2.9,4.4-2.9,7.1c0,2.6,1.1,5.2,2.9,7.1
				c1.9,1.9,4.4,2.9,7.1,2.9s5.2-1.1,7.1-2.9c1.9-1.9,2.9-4.4,2.9-7.1C512,361.6,510.9,359,509.1,357.2z"/>
		</g>
	</g>
	<g>
		<g>
			<path class="st0" d="M502,392.9c-5.5,0-10,4.5-10,10v18c0,6.3-5.2,11.5-11.5,11.5c-5.5,0-10,4.5-10,10s4.5,10,10,10
				c17.4,0,31.5-14.1,31.5-31.5v-18C512,397.4,507.5,392.9,502,392.9z"/>
		</g>
	</g>
	<g>
		<g>
			<path class="st0" d="M407.7,448.4c-5.5,0-10,4.5-10,10v43.5c0,5.5,4.5,10,10,10s10-4.5,10-10v-43.5
				C417.7,452.9,413.2,448.4,407.7,448.4z"/>
		</g>
	</g>
	<g>
		<g>
			<path class="st0" d="M263.1,385.5c-1.9-1.9-4.4-2.9-7.1-2.9s-5.2,1.1-7.1,2.9c-1.9,1.9-2.9,4.4-2.9,7.1c0,2.6,1.1,5.2,2.9,7.1
				c1.9,1.9,4.4,2.9,7.1,2.9s5.2-1.1,7.1-2.9c1.9-1.9,2.9-4.4,2.9-7.1C266,390,264.9,387.4,263.1,385.5z"/>
		</g>
	</g>
</g>
</svg>
