<?xml version="1.0" encoding="utf-8"?>
<!-- Generator: Adobe Illustrator 21.0.2, SVG Export Plug-In . SVG Version: 6.00 Build 0)  -->
<svg version="1.1" id="Capa_1" xmlns="http://www.w3.org/2000/svg" xmlns:xlink="http://www.w3.org/1999/xlink" x="0px" y="0px"
	 viewBox="0 0 512 512" style="enable-background:new 0 0 512 512;" xml:space="preserve">
<style type="text/css">
	.st0{fill:#FFFFFF;}
</style>
<g>
	<g>
		<path class="st0" d="M211.8,229.1c-23.9,0-44.9,12.6-56.7,31.6c0,0,0,0,0,0C148.7,271,145,283,145,295.9c0,36.8,30,66.8,66.8,66.8
			s66.8-30,66.8-66.8S248.7,229.1,211.8,229.1z M211.8,353.9c-31.9,0-57.9-26-57.9-57.9c0-10.3,2.7-19.9,7.4-28.3h41.9
			c2.5,0,4.4-2,4.4-4.4c0-2.5-2-4.4-4.4-4.4h-35.8c10.6-12.7,26.6-20.8,44.4-20.8c27.5,0,50.6,19.3,56.5,45.1h-70.2
			c-2.5,0-4.4,2-4.4,4.4s2,4.4,4.4,4.4h71.5c0.1,1.3,0.2,2.6,0.2,4C269.8,327.9,243.8,353.9,211.8,353.9z"/>
		<path class="st0" d="M497.2,109.4l-394,0c-8.2,0-14.8,6.7-14.8,14.8v25.7H58.3c-8.2,0-14.8,6.7-14.8,14.8v24.6H14.8
			C6.7,189.3,0,196,0,204.1v183.6c0,8.2,6.7,14.8,14.8,14.8h394c8.2,0,14.8-6.7,14.8-14.8v-24.6h28.6c8.2,0,14.8-6.7,14.8-14.8
			v-25.7h30.1c8.2,0,14.8-6.7,14.8-14.8V124.3C512,116.1,505.3,109.4,497.2,109.4z M378.1,375.8h-76.2c-2.5,0-4.4,2-4.4,4.4
			s2,4.4,4.4,4.4h72.5c-0.9,2.9-1.5,5.9-1.7,9H51.1c-2.1-22.3-19.9-40.1-42.2-42.2v-27.9h86.9c2.5,0,4.4-2,4.4-4.4
			c0-2.5-2-4.4-4.4-4.4H8.9v-74.4c22.3-2.1,40-19.9,42.1-42.1h321.5c2,22.4,19.9,40.2,42.3,42.2v111.2
			C398.9,353.1,385.3,362.5,378.1,375.8z M414.8,231.5c-17.5-1.9-31.4-15.8-33.4-33.3h27.4c3.3,0,6,2.7,6,6V231.5z M408.8,189.3
			H78.9c8.7-7.7,14.3-18.6,15.4-30.5h321.8c0.4,3.8,1.2,7.4,2.4,10.9h-97.8c-2.5,0-4.4,2-4.4,4.4c0,2.5,2,4.4,4.4,4.4h102
			c7.5,12.3,20.5,20.9,35.6,22.3v111.3c-14.4,1.4-27,9.3-34.6,20.8V204.1C423.6,196,417,189.3,408.8,189.3z M458.2,192
			c-17.4-2-31.2-15.8-33.2-33.2h27.3c3.3,0,6,2.7,6,6V192z M452.3,149.9H122.2c4.3-3.5,7.9-7.8,10.7-12.6l64.5,0
			c2.4,0,4.4-2,4.4-4.4c0-2.4-2-4.4-4.4-4.4l-60.4,0c1.1-3.3,1.8-6.7,2.2-10.2l321.9,0c2.1,22.2,19.9,40,42.1,42.1v111.4
			c-15.4,1.4-28.7,10.4-36,23.2V164.8C467.1,156.6,460.4,149.9,452.3,149.9z M503.1,124.3v27.2c-17.4-2-31.2-15.8-33.2-33.2h27.2
			C500.5,118.3,503.1,121,503.1,124.3z M97.2,124.3c0-3.3,2.7-6,6-6h27c-1.7,14.5-12,27.1-26.2,31.6h-6.8V124.3z M52.3,164.8
			c0-3.3,2.7-6,6-6h27.1c-1.5,13.5-10.2,25.2-22.9,30.5H52.3L52.3,164.8L52.3,164.8z M14.8,198.2H42c-2,17.4-15.8,31.2-33.2,33.2
			v-27.2C8.9,200.9,11.5,198.2,14.8,198.2z M8.9,387.7v-27.3c17.4,2,31.3,15.8,33.3,33.2H14.8C11.5,393.7,8.9,391,8.9,387.7z
			 M408.8,393.7h-27.2c2-17.4,15.8-31.2,33.2-33.2v27.2C414.8,391,412.1,393.7,408.8,393.7z M452.3,354.3H425
			c2-17.4,15.8-31.2,33.2-33.2v27.2C458.2,351.6,455.5,354.3,452.3,354.3z M497.2,313.8H470c2-17.3,15.8-31.1,33.2-33.1v27.2
			C503.1,311.1,500.5,313.8,497.2,313.8z"/>
	</g>
</g>
</svg>
