<?xml version="1.0" encoding="utf-8"?>
<!-- Generator: Adobe Illustrator 21.0.2, SVG Export Plug-In . SVG Version: 6.00 Build 0)  -->
<svg version="1.1" id="Layer_1" xmlns="http://www.w3.org/2000/svg" xmlns:xlink="http://www.w3.org/1999/xlink" x="0px" y="0px"
	 viewBox="0 0 512 512" style="enable-background:new 0 0 512 512;" xml:space="preserve">
<style type="text/css">
	.st0{fill:#FFFFFF;}
</style>
<g>
	<g>
		<g>
			<path class="st0" d="M486.4,247.5V59.7c0-23.5-19.1-42.7-42.7-42.7H68.3c-23.5,0-42.7,19.1-42.7,42.7v128
				C11.5,187.7,0,199.2,0,213.3v256c0,14.1,11.5,25.6,25.6,25.6h187.7c14.1,0,25.6-11.5,25.6-25.6h71.5c8,0,15.5-3.7,20.3-10.1
				s6.5-14.5,4.4-22.3l-16.8-61.5h48.6v93.9c0,14.1,11.5,25.6,25.6,25.6h93.9c14.1,0,25.6-11.5,25.6-25.6V273.1
				C512,259,500.5,247.5,486.4,247.5z M221.9,469.3c0,4.7-3.8,8.5-8.5,8.5H25.6c-4.7,0-8.5-3.8-8.5-8.5v-17.1h204.8V469.3z
				 M221.9,435.2H17.1V247.5h204.8V435.2z M221.9,230.4H17.1v-17.1c0-4.7,3.8-8.5,8.5-8.5h187.7c4.7,0,8.5,3.8,8.5,8.5V230.4z
				 M318.7,441.5c0.7,2.6,0.2,5.3-1.5,7.4s-4.1,3.4-6.8,3.4h-71.5v-17.1h78L318.7,441.5z M238.9,418.1v-42.7h61.7l11.6,42.7H238.9z
				 M366.9,358.4h-128v-51.2h128V358.4z M366.9,273.1v17.1h-128v-76.8c0-14.1-11.5-25.6-25.6-25.6H42.7v-128
				c0-14.1,11.5-25.6,25.6-25.6h375.5c14.1,0,25.6,11.5,25.6,25.6v187.7h-76.8C378.4,247.5,366.9,259,366.9,273.1z M494.9,469.3
				c0,4.7-3.8,8.5-8.5,8.5h-93.9c-4.7,0-8.5-3.8-8.5-8.5v-17.1h110.9V469.3z M494.9,435.2H384v-128h110.9V435.2z M494.9,290.1H384
				v-17.1c0-4.7,3.8-8.5,8.5-8.5h93.9c4.7,0,8.5,3.8,8.5,8.5V290.1z"/>
		</g>
	</g>
	<g>
		<g>
			
				<rect x="44.1" y="349.9" transform="matrix(0.7071 -0.7071 0.7071 0.7071 -233.4269 153.2401)" class="st0" width="48.3" height="17.1"/>
		</g>
	</g>
	<g>
		<g>
			
				<rect x="64.1" y="341.3" transform="matrix(0.7071 -0.7071 0.7071 0.7071 -207.4001 199.011)" class="st0" width="144.8" height="17.1"/>
		</g>
	</g>
	<g>
		<g>
			
				<rect x="91.8" y="290.1" transform="matrix(0.7071 -0.7071 0.7071 0.7071 -173.7048 177.9818)" class="st0" width="72.4" height="17.1"/>
		</g>
	</g>
	<g>
		<g>
			
				<rect x="400.7" y="345.6" transform="matrix(0.7071 -0.7071 0.7071 0.7071 -124.2053 408.4262)" class="st0" width="60.3" height="17.1"/>
		</g>
	</g>
	<g>
		<g>
			
				<rect x="417.8" y="379.8" transform="matrix(0.7071 -0.7071 0.7071 0.7071 -143.3691 430.4999)" class="st0" width="60.3" height="17.1"/>
		</g>
	</g>
	<g>
		<g>
			
				<rect x="219.8" y="136.5" transform="matrix(0.7071 -0.7071 0.7071 0.7071 -27.6025 223.5009)" class="st0" width="72.4" height="17.1"/>
		</g>
	</g>
	<g>
		<g>
			
				<rect x="296.6" y="119.5" transform="matrix(0.7071 -0.7071 0.7071 0.7071 6.9612 272.8114)" class="st0" width="72.4" height="17.1"/>
		</g>
	</g>
	<g>
		<g>
			
				<rect x="248.9" y="179.2" transform="matrix(0.7071 -0.7071 0.7071 0.7071 -52.7793 248.0679)" class="st0" width="48.3" height="17.1"/>
		</g>
	</g>
	<g>
		<g>
			
				<rect x="291.5" y="76.9" transform="matrix(0.7071 -0.7071 0.7071 0.7071 32.0837 248.2577)" class="st0" width="48.4" height="17.1"/>
		</g>
	</g>
	<g>
		<g>
			<rect x="59.7" y="51.2" class="st0" width="17.1" height="17.1"/>
		</g>
	</g>
	<g>
		<g>
			<rect x="93.9" y="51.2" class="st0" width="17.1" height="17.1"/>
		</g>
	</g>
	<g>
		<g>
			<rect x="128" y="51.2" class="st0" width="17.1" height="17.1"/>
		</g>
	</g>
</g>
</svg>
