<?xml version="1.0"?>
<svg xmlns="http://www.w3.org/2000/svg" height="512px" viewBox="0 0 496 496" width="512px" class=""><g><g fill="#f0bc5e"><path d="m264 200h-13.574219c-11.515625 0-22.257812 5.753906-28.640625 15.328125-3.777344 5.65625-5.785156 12.296875-5.785156 19.097656v34.703125c20.222656-9.65625 37.113281-25.167968 48.441406-44.375l5.4375-23.570312zm0 0" data-original="#000000" class="active-path" data-old_color="#ffc425" fill="#ffc425"/><path d="m168 56c-14.167969 0-27.671875 2.742188-40.152344 7.542969l.152344.457031 10.6875 26.71875c3.207031 8.015625 10.976562 13.28125 19.609375 13.28125h9.207031c9.695313 0 18.144532 6.601562 20.496094 16s10.800781 16 20.496094 16h2.457031c8 0 15.3125 4.519531 18.894531 11.679688l4.320313 8.648437c3.574219 7.160156 10.894531 11.679687 18.894531 11.679687h24.488281l2.015625-8.742187c-4.488281-57.769531-52.664062-103.265625-111.566406-103.265625zm0 0" data-original="#000000" class="active-path" data-old_color="#ffc425" fill="#ffc425"/><path d="m136 275.304688v-3.304688c0-17.671875 14.328125-32 32-32 8.839844 0 16-7.160156 16-16s-7.160156-16-16-16-16-7.160156-16-16v-12.921875c0-10.535156-8.542969-19.078125-19.078125-19.078125-7.800781 0-14.816406-4.753906-17.722656-11.992188-6.757813-16.917968-23.144531-28.007812-41.359375-28.007812h-6.917969c-6.929687 14.566406-10.921875 30.800781-10.921875 48 0 50.726562 33.753906 93.527344 80 107.304688zm0 0" data-original="#000000" class="active-path" data-old_color="#ffc425" fill="#ffc425"/><path d="m464 216c0 48.601562-39.398438 88-88 88s-88-39.398438-88-88 39.398438-88 88-88 88 39.398438 88 88zm0 0" data-original="#000000" class="active-path" data-old_color="#ffc425" fill="#ffc425"/></g><path d="m496 216c0-66.167969-53.832031-120-120-120-24.175781 0-46.664062 7.246094-65.519531 19.59375-3.3125-9.042969-7.402344-17.707031-12.289063-25.839844l9.625-19.515625-42.054687-42.054687-19.503907 9.625c-13.027343-7.847656-26.96875-13.648438-41.554687-17.265625l-6.96875-20.542969h-59.46875l-6.96875 20.535156c-14.585937 3.617188-28.527344 9.417969-41.554687 17.265625l-19.511719-9.625-42.054688 42.054688 9.625 19.503906c-7.847656 13.027344-13.648437 26.96875-17.265625 41.554687l-20.535156 6.976563v59.46875l20.535156 6.96875c3.617188 14.585937 9.417969 28.527344 17.265625 41.554687l-9.625 19.503907 42.054688 42.054687 19.503906-9.625c13.027344 7.847656 26.96875 13.648438 41.554687 17.265625l6.976563 20.542969h59.46875l6.96875-20.535156c14.585937-3.617188 28.527344-9.417969 41.554687-17.265625l19.503907 9.625 16.75-16.753907c13.832031 17.1875 32.304687 30.417969 53.480469 37.9375v22.992188h-16v16h16v88c0 22.054688 17.945312 40 40 40 22.054687 0 40-17.945312 40-40v-88h16v-16h-16v-23c46.542968-16.527344 80.007812-60.871094 80.007812-113zm-233.441406 72.398438-17.277344-8.519532-3.808594 2.457032c-13.808594 8.878906-28.816406 15.121093-44.609375 18.527343l-4.429687.960938-6.167969 18.175781h-36.53125l-6.167969-18.175781-4.429687-.960938c-15.800781-3.414062-30.808594-9.648437-44.609375-18.527343l-3.808594-2.457032-17.277344 8.519532-25.839844-25.839844 8.519532-17.277344-2.457032-3.808594c-8.878906-13.808594-15.121093-28.816406-18.527343-44.609375l-.960938-4.429687-18.175781-6.167969v-36.53125l18.175781-6.167969.960938-4.429687c3.414062-15.800781 9.648437-30.808594 18.527343-44.609375l2.457032-3.808594-8.519532-17.277344 25.839844-25.839844 17.277344 8.519532 3.808594-2.457032c13.808594-8.878906 28.816406-15.121093 44.609375-18.527343l4.429687-.960938 6.167969-18.175781h36.53125l6.167969 18.175781 4.429687.960938c15.800781 3.414062 30.808594 9.648437 44.609375 18.527343l3.808594 2.457032 17.277344-8.519532 25.832031 25.832032-8.519531 17.277344 2.457031 3.808593c6.207031 9.640625 11.085937 20.183594 14.71875 31.335938-4.582031 4.023437-8.910156 8.335937-12.839844 13.007812-13.167969-52.261719-60.792969-90.863281-116.207031-90.863281-66.167969 0-120 53.832031-120 120s53.832031 120 120 120c35.496094 0 69.105469-16.089844 91.710938-42.921875 2.914062 11.640625 7.511718 22.59375 13.554687 32.609375zm-6.558594-72.398438c0 2.222656.214844 4.390625.335938 6.59375-18.902344 30.511719-52.519532 49.40625-88.335938 49.40625-57.34375 0-104-46.65625-104-104s46.65625-104 104-104c53.136719 0 98.007812 40.921875 103.289062 93.550781-9.695312 17.3125-15.289062 37.226563-15.289062 58.449219zm16 0c0-57.34375 46.65625-104 104-104s104 46.65625 104 104-46.65625 104-104 104-104-46.65625-104-104zm128 240c0 13.230469-10.769531 24-24 24s-24-10.769531-24-24v-88h48zm0-104h-48v-18.414062c7.761719 1.574218 15.785156 2.414062 24 2.414062s16.238281-.839844 24-2.414062zm0 0" data-original="#000000" class="active-path" data-old_color="#ffc425" fill="#ffc425"/></g> </svg>
