<?xml version="1.0" encoding="utf-8"?>
<!-- Generator: Adobe Illustrator 21.0.2, SVG Export Plug-In . SVG Version: 6.00 Build 0)  -->
<svg version="1.1" id="Layer_1" xmlns="http://www.w3.org/2000/svg" xmlns:xlink="http://www.w3.org/1999/xlink" x="0px" y="0px"
	 viewBox="0 0 512 512" style="enable-background:new 0 0 512 512;" xml:space="preserve">
<style type="text/css">
	.st0{fill:#FFFFFF;}
</style>
<g>
	<g>
		<path class="st0" d="M272.5,206.5h-14c-11.9,0-23,5.9-29.6,15.8c-3.9,5.8-6,12.7-6,19.7v35.8c20.9-10,38.3-26,50-45.8l5.6-24.3
			L272.5,206.5z"/>
		<path class="st0" d="M173.4,57.8c-14.6,0-28.6,2.8-41.4,7.8l0.2,0.5l11,27.6c3.3,8.3,11.3,13.7,20.2,13.7h9.5
			c10,0,18.7,6.8,21.2,16.5c2.4,9.7,11.1,16.5,21.2,16.5h2.5c8.3,0,15.8,4.7,19.5,12.1l4.5,8.9c3.7,7.4,11.2,12.1,19.5,12.1h25.3
			l2.1-9C284,104.8,234.2,57.8,173.4,57.8z"/>
		<path class="st0" d="M140.4,284.2v-3.4c0-18.2,14.8-33,33-33c9.1,0,16.5-7.4,16.5-16.5s-7.4-16.5-16.5-16.5
			c-9.1,0-16.5-7.4-16.5-16.5v-13.3c0-10.9-8.8-19.7-19.7-19.7c-8.1,0-15.3-4.9-18.3-12.4c-7-17.5-23.9-28.9-42.7-28.9h-7.1
			c-7.2,15-11.3,31.8-11.3,49.5C57.8,225.8,92.6,270,140.4,284.2z"/>
		<path class="st0" d="M479,223c0,50.2-40.7,90.8-90.8,90.8s-90.8-40.7-90.8-90.8s40.7-90.8,90.8-90.8S479,172.8,479,223z"/>
	</g>
	<path class="st0" d="M512,223c0-68.3-55.6-123.9-123.9-123.9c-25,0-48.2,7.5-67.6,20.2c-3.4-9.3-7.6-18.3-12.7-26.7l9.9-20.1
		l-43.4-43.4L254.2,39c-13.4-8.1-27.8-14.1-42.9-17.8L204.1,0h-61.4l-7.2,21.2c-15.1,3.7-29.4,9.7-42.9,17.8l-20.1-9.9L29.1,72.5
		L39,92.6c-8.1,13.4-14.1,27.8-17.8,42.9L0,142.7v61.4l21.2,7.2c3.7,15.1,9.7,29.4,17.8,42.9l-9.9,20.1l43.4,43.4l20.1-9.9
		c13.4,8.1,27.8,14.1,42.9,17.8l7.2,21.2h61.4l7.2-21.2c15.1-3.7,29.4-9.7,42.9-17.8l20.1,9.9l17.3-17.3
		c14.3,17.7,33.3,31.4,55.2,39.2v23.7h-16.5v16.5h16.5v90.8c0,22.8,18.5,41.3,41.3,41.3c22.8,0,41.3-18.5,41.3-41.3v-90.8h16.5
		v-16.5h-16.5v-23.7C477.5,322.6,512,276.8,512,223z M271,297.7l-17.8-8.8l-3.9,2.5c-14.3,9.2-29.7,15.6-46,19.1l-4.6,1l-6.4,18.8
		h-37.7l-6.4-18.8l-4.6-1c-16.3-3.5-31.8-10-46-19.1l-3.9-2.5l-17.8,8.8L49.1,271l8.8-17.8l-2.5-3.9c-9.2-14.3-15.6-29.7-19.1-46
		l-1-4.6l-18.8-6.4v-37.7l18.8-6.4l1-4.6c3.5-16.3,10-31.8,19.1-46l2.5-3.9l-8.8-17.8l26.7-26.7l17.8,8.8l3.9-2.5
		c14.3-9.2,29.7-15.6,46-19.1l4.6-1l6.4-18.8h37.7l6.4,18.8l4.6,1c16.3,3.5,31.8,10,46,19.1l3.9,2.5l17.8-8.8l26.7,26.7l-8.8,17.8
		l2.5,3.9c6.4,10,11.4,20.8,15.2,32.3c-4.7,4.2-9.2,8.6-13.3,13.4c-13.6-53.9-62.8-93.8-120-93.8c-68.3,0-123.9,55.6-123.9,123.9
		s55.6,123.9,123.9,123.9c36.6,0,71.3-16.6,94.7-44.3c3,12,7.8,23.3,14,33.7L271,297.7z M264.3,223c0,2.3,0.2,4.5,0.3,6.8
		c-19.5,31.5-54.2,51-91.2,51c-59.2,0-107.4-48.2-107.4-107.4S114.2,66.1,173.4,66.1c54.9,0,101.2,42.2,106.6,96.6
		C270,180.5,264.3,201.1,264.3,223z M280.8,223c0-59.2,48.2-107.4,107.4-107.4S495.5,163.8,495.5,223s-48.2,107.4-107.4,107.4
		S280.8,282.2,280.8,223z M412.9,470.7c0,13.7-11.1,24.8-24.8,24.8s-24.8-11.1-24.8-24.8v-90.8h49.5V470.7z M412.9,363.4h-49.5v-19
		c8,1.6,16.3,2.5,24.8,2.5c8.5,0,16.8-0.9,24.8-2.5V363.4z"/>
</g>
</svg>
