<?xml version="1.0" encoding="utf-8"?>
<!-- Generator: Adobe Illustrator 21.0.2, SVG Export Plug-In . SVG Version: 6.00 Build 0)  -->
<svg version="1.1" id="Capa_1" xmlns="http://www.w3.org/2000/svg" xmlns:xlink="http://www.w3.org/1999/xlink" x="0px" y="0px"
	 viewBox="0 0 512 512" style="enable-background:new 0 0 512 512;" xml:space="preserve">
<style type="text/css">
	.st0{fill:#FFFFFF;}
</style>
<g>
	<g>
		<path class="st0" d="M418.8,143.4l61.1-61.1c1.7-1.7,1.7-4.5,0-6.2c-27.5-27.5-64.1-42.7-103-42.7c-19.7,0-38.7,3.9-56.7,11.5
			l-15.6-15.6c-10.8-10.8-25.1-16.7-40.3-16.7c-15.2,0-29.5,5.9-40.3,16.7c-16.5,16.5-20.7,40.7-12.7,61.2L60.2,135.2
			c-5.8-3.3-12.6-5.2-19.7-5.2C18.2,130.1,0,148.2,0,170.5c0,18.7,12.7,34.4,30,39.1L115.6,463c-15,7.9-29.1,17.5-42.1,28.8
			c-1.4,1.2-1.9,3.1-1.2,4.8c0.6,1.7,2.3,2.8,4.1,2.8h283.3c1.8,0,3.5-1.1,4.1-2.8c0.6-1.7,0.2-3.6-1.2-4.8
			c-40-34.9-91.4-54.1-144.5-54.1c-21.1,0-41.8,3-61.7,8.8L71.7,196.3c4.9-6,8.2-13.3,9-21.4l160-47.4
			c-20.3,53.6-7.5,113.9,33.2,154.6c0.8,0.8,1.9,1.3,3.1,1.3s2.3-0.5,3.1-1.3l61.1-61.1c10,8.9,22.8,13.8,36.4,13.8
			c14.7,0,28.5-5.7,38.8-16.1c10.4-10.4,16.1-24.2,16.1-38.8C432.6,166.2,427.7,153.4,418.8,143.4z M215.2,98.4
			c2.4,4.1,5.3,7.9,8.8,11.4l10.3,10.3L80.7,165.7c-1.1-9.3-5.4-17.7-11.7-24L215.2,98.4z M9.1,174.9h41.3c2.4,0,4.4-2,4.4-4.4
			c0-2.4-2-4.4-4.4-4.4H9.1c2.1-15.4,15.4-27.3,31.4-27.3c17.5,0,31.7,14.2,31.7,31.7c0,0.2,0,0.4,0,0.6l0,0.2c0,0,0,0,0,0
			c-0.5,17.1-14.5,30.8-31.7,30.8C24.5,202.2,11.2,190.3,9.1,174.9z M302.9,464.2H194.2c-2.4,0-4.4,2-4.4,4.4s2,4.4,4.4,4.4h126.4
			c9.4,5.2,18.3,11.1,26.9,17.7H88.7c36.9-28.6,82.4-44.3,129.4-44.3C247.5,446.5,276.4,452.6,302.9,464.2z M123.6,459L39.7,211
			c0.3,0,0.5,0,0.8,0c1.5,0,2.9-0.1,4.3-0.2l35.4,104.6c0.6,1.8,2.3,3,4.2,3c0.5,0,0.9-0.1,1.4-0.2c2.3-0.8,3.5-3.3,2.7-5.6
			L53.4,208.9c4.1-1.4,7.9-3.4,11.3-5.9L148,449.2C139.7,451.9,131.5,455.2,123.6,459z M277.1,272.7c-21.2-22.6-33.7-51.2-36.5-80.9
			c0,0,0,0,0,0l55.7-55.7c1.7-1.7,1.7-4.5,0-6.2c-1.7-1.7-4.5-1.7-6.2,0L240,180c-0.1-17.7,3.2-35.6,10.2-52.7
			c0.7-1.6,0.3-3.5-1-4.8l-19-19c-0.6-0.6-1.2-1.2-1.7-1.8l30.7-30.7c1.7-1.7,1.7-4.5,0-6.2c-1.7-1.7-4.5-1.7-6.2,0l-29.8,29.8
			c-11.4-18.6-9-43.2,7-59.3c9.1-9.1,21.2-14.1,34.1-14.1c12.9,0,25,5,34.1,14.1l17.7,17.7c1.3,1.3,3.2,1.6,4.9,0.9
			c17.7-7.9,36.5-11.9,55.9-11.9c14.6,0,28.8,2.3,42.2,6.6L321,146.9c-1.7,1.7-1.7,4.5,0,6.2c0.9,0.9,2,1.3,3.1,1.3s2.2-0.4,3.1-1.3
			l101-101c15.5,6.3,29.8,15.4,42.3,27.1L277.1,272.7z M410.3,212.4c-8.7,8.7-20.3,13.5-32.6,13.5c-11.2,0-21.8-4-30.2-11.2
			l65.1-65.1c7.3,8.4,11.2,19,11.2,30.2C423.8,192.1,419,203.7,410.3,212.4z"/>
		<path class="st0" d="M433.4,223.1c-1.7-1.7-4.5-1.7-6.2,0c-1.7,1.7-1.7,4.5,0,6.2l46.9,46.9c0.9,0.9,2,1.3,3.1,1.3
			s2.2-0.4,3.1-1.3c1.7-1.7,1.7-4.5,0-6.2L433.4,223.1z"/>
		<path class="st0" d="M379.7,247.6c-2.4,0-4.4,2-4.4,4.4v73.2c0,2.4,2,4.4,4.4,4.4s4.4-2,4.4-4.4V252
			C384.1,249.6,382.2,247.6,379.7,247.6z"/>
		<path class="st0" d="M507.6,160h-63.9c-2.4,0-4.4,2-4.4,4.4s2,4.4,4.4,4.4h63.9c2.4,0,4.4-2,4.4-4.4C512,161.9,510,160,507.6,160z
			"/>
	</g>
</g>
</svg>
