<?xml version="1.0" encoding="utf-8"?>
<!-- Generator: Adobe Illustrator 21.0.2, SVG Export Plug-In . SVG Version: 6.00 Build 0)  -->
<svg version="1.1" id="Layer_1" xmlns="http://www.w3.org/2000/svg" xmlns:xlink="http://www.w3.org/1999/xlink" x="0px" y="0px"
	 viewBox="0 0 542.1 108.8" style="enable-background:new 0 0 542.1 108.8;" xml:space="preserve">
<style type="text/css">
	.st0{fill:#FFFFFF;}
	.st1{fill:#FFFFFF;stroke:#FFFFFF;stroke-width:0.5;stroke-miterlimit:10;}
</style>
<path class="st0" d="M60.1,13H58l-0.5-2c-1.3-5.1-2.3-7.3-11.1-7.3H33.9v40.6c0,9.7,1.2,11.3,9.2,11.3v2.1H17v-2.1
	c8,0,9.2-1.6,9.2-11.3V3.7H13.7C4.9,3.7,3.9,5.9,2.6,11l-0.5,2H0L0.9,0h58.4L60.1,13z"/>
<path class="st0" d="M58.6,50.4c-1.8,3.8-1.8,5.4,4.2,5.4v1.8H47.5v-1.8c4.8,0,5.6-1.2,8.1-6.5l11.8-25h1.7l11.6,25
	c2.4,5.1,3.3,6.5,7.7,6.5v1.8H69.9v-1.8c5.5,0,6.1-1.6,4.3-5.4l-1.5-3.2H60.1L58.6,50.4z M66.3,34l-4.8,10.3h9.7L66.3,34z"/>
<path class="st0" d="M104.9,58.9c-3.8,0-7.2-2-8.7-3.3c-0.5,0.5-1.3,2-1.6,3.3h-1.8V45.7h2c0.7,6.4,5.1,10.2,10.9,10.2
	c3.1,0,5.6-1.7,5.6-4.7c0-2.4-2.2-4.4-6.1-6.2l-5.5-2.6c-3.8-1.8-6.7-5-6.7-9.2c0-4.7,4.3-8.6,10.3-8.6c3.2,0,5.9,1.1,7.5,2.4
	c0.5-0.4,1-1.5,1.2-2.6h1.8v11.4h-2.1c-0.6-4.5-3.2-8.3-8.3-8.3c-2.7,0-5.1,1.6-5.1,3.9c0,2.4,2,3.8,6.6,6l5.3,2.6
	c4.7,2.2,6.5,5.8,6.5,8.7C116.6,54.7,111.4,58.9,104.9,58.9"/>
<path class="st0" d="M136.5,58.9c-3.8,0-7.2-2-8.7-3.3c-0.5,0.5-1.3,2-1.6,3.3h-1.8V45.7h2c0.7,6.4,5.1,10.2,10.9,10.2
	c3.1,0,5.6-1.7,5.6-4.7c0-2.4-2.2-4.4-6.1-6.2l-5.5-2.6c-3.8-1.8-6.7-5-6.7-9.2c0-4.7,4.3-8.6,10.3-8.6c3.2,0,5.9,1.1,7.5,2.4
	c0.5-0.4,1-1.5,1.2-2.6h1.8v11.4h-2c-0.7-4.5-3.2-8.3-8.3-8.3c-2.7,0-5.1,1.6-5.1,3.9c0,2.4,2.1,3.8,6.6,6l5.3,2.6
	c4.7,2.2,6.5,5.8,6.5,8.7C148.2,54.7,143,58.9,136.5,58.9"/>
<path class="st0" d="M160.6,50.4c-1.8,3.8-1.8,5.4,4.2,5.4v1.8h-15.3v-1.8c4.8,0,5.6-1.2,8.1-6.5l11.8-25h1.7l11.6,25
	c2.4,5.1,3.3,6.5,7.7,6.5v1.8h-18.6v-1.8c5.5,0,6.1-1.6,4.3-5.4l-1.5-3.2h-12.5L160.6,50.4z M168.3,34l-4.8,10.3h9.7L168.3,34z"/>
<path class="st0" d="M193.4,27.4v-1.8h19.1v1.8c-5.4,0-6.2,1.1-6.2,8v20c0,9.8-6,14-12.1,14c-9.2,0-11.9-8.6-7.1-8.8
	c4.4-0.2,2,5.6,7.5,5.6c2.9,0,5.1-2.1,5.1-10.8v-20C199.6,28.6,198.8,27.4,193.4,27.4"/>
<path class="st0" d="M223,50.4c-1.8,3.8-1.8,5.4,4.2,5.4v1.8h-15.3v-1.8c4.8,0,5.6-1.2,8.1-6.5l11.8-25h1.7l11.6,25
	c2.4,5.1,3.3,6.5,7.7,6.5v1.8h-18.6v-1.8c5.5,0,6.1-1.6,4.3-5.4l-1.5-3.2h-12.5L223,50.4z M230.7,34l-4.8,10.3h9.7L230.7,34z"/>
<path class="st0" d="M268.7,44.3v3.4c0,6.9,0.9,8.1,6.2,8.1v1.8h-19.1v-1.8c5.4,0,6.2-1.2,6.2-8.1V35.3c0-6.9-0.9-8-6.2-8v-1.8h16.9
	c8.4,0,13,4,13,9.3c0,4.3-3.2,8-9.2,9.1l4.4,4.8c3.8,4.3,6.6,6.5,10.8,7v1.8h-10.8l-10.6-13.3h-1.6L268.7,44.3L268.7,44.3z
	 M272.6,28.5h-3.9v12.9h3.9c4.3,0,6.2-2.9,6.2-6.4C278.8,31.4,277,28.5,272.6,28.5"/>
<path class="st0" d="M302.1,50.4c-1.8,3.8-1.8,5.4,4.2,5.4v1.8H291v-1.8c4.8,0,5.6-1.2,8.1-6.5l11.8-25h1.7l11.6,25
	c2.4,5.1,3.3,6.5,7.7,6.5v1.8h-18.6v-1.8c5.5,0,6.1-1.6,4.3-5.4l-1.5-3.2h-12.5L302.1,50.4z M309.8,34L305,44.3h9.7L309.8,34z"/>
<path class="st0" d="M371.7,44.4c0,9.7,1.1,11.3,9.2,11.3v2H355v-2c8,0,9.2-1.6,9.2-11.3V13.2c0-9.7-1.1-11.1-9.2-11.1V0h25.9v2.1
	c-8,0-9.2,1.6-9.2,11.1v12.1h32.7V13.2c0-9.7-1.2-11.1-9.2-11.1V0h26.1v2.1c-8.1,0-9.2,1.6-9.2,11.1v31.2c0,9.7,1.1,11.3,9.2,11.3v2
	h-26.1v-2c8,0,9.2-1.6,9.2-11.3V28.9h-32.7V44.4z"/>
<path class="st0" d="M423.1,57.6v-1.8c5.4,0,6.2-1.2,6.2-8.1V35.3c0-6.9-0.9-8-6.2-8v-1.8h19.1v1.8c-5.4,0-6.2,1.1-6.2,8v12.4
	c0,6.9,0.9,8.1,6.2,8.1v1.8H423.1z"/>
<path class="st0" d="M465.6,54.7h3.4c7,0,8-1.1,8.8-4.3l0.5-1.7h1.6l-0.7,9.1H447V56c5.4,0,6.2-1.2,6.2-8.1V35.5c0-6.9-0.9-8-6.2-8
	v-1.8h19.1v1.8c-5.4,0-6.2,1.1-6.2,8v11.3C459.7,53.5,460.6,54.7,465.6,54.7"/>
<path class="st0" d="M500.6,54.7h3.4c7,0,8-1.1,8.8-4.3l0.5-1.7h1.6l-0.9,8.9h-32.2v-1.8c5.4,0,6.2-1.2,6.2-8.1V35.3
	c0-6.9-0.9-8-6.2-8v-1.8h19.1v1.8c-5.4,0-6.2,1.1-6.2,8v11.3C494.7,53.5,495.6,54.7,500.6,54.7"/>
<path class="st0" d="M530.4,58.9c-3.8,0-7.2-2-8.7-3.3c-0.5,0.5-1.3,2-1.6,3.3h-1.8V45.7h2c0.7,6.4,5.1,10.2,10.9,10.2
	c3.1,0,5.6-1.7,5.6-4.7c0-2.4-2.2-4.4-6.1-6.2l-5.5-2.6c-3.8-1.8-6.7-5-6.7-9.2c0-4.7,4.3-8.6,10.3-8.6c3.2,0,5.9,1.1,7.5,2.4
	c0.5-0.4,1-1.5,1.2-2.6h1.8v11.4h-2c-0.7-4.5-3.2-8.3-8.3-8.3c-2.7,0-5.1,1.6-5.1,3.9c0,2.4,2.1,3.8,6.6,6l5.3,2.6
	c4.7,2.2,6.5,5.8,6.5,8.7C542.1,54.7,536.7,58.9,530.4,58.9"/>
<path class="st1" d="M164.8,90.7h10.9c4.8,0,8.4,2.7,8.4,8.6s-3.7,8.6-8.4,8.6h-10.9v-0.6c0.5,0,0.7-0.2,0.7-0.6V92
	c0-0.4-0.2-0.6-0.7-0.6V90.7z M169.3,105.1h5c4.2,0,6.1-1.2,6.1-5.8c0-4.5-2-5.8-6.1-5.8h-5V105.1z"/>
<path class="st1" d="M211.9,90.7v0.6c-0.4,0-0.7,0.2-0.7,0.6v9.8c0,2.7,1.8,3.5,5.1,3.5s5.1-0.9,5.1-3.5v-9.8c0-0.4-0.2-0.6-1-0.6
	v-0.6h5.3v0.6c-0.5,0-0.7,0.2-0.7,0.6v9.7c0,5.1-3.1,6.6-8.8,6.6c-5.8,0-8.8-1.5-8.8-6.6v-9.7c0-0.4-0.2-0.6-0.9-0.6v-0.6H211.9z"/>
<path class="st1" d="M259.2,90.7c4,0,7.8,1.2,7.8,4.5c0,2.1-1.5,3.1-3.2,3.7V99c2.1,0.6,3.7,1.8,3.7,4.3c0,2.6-2.3,4.5-6.5,4.5h-12
	v-0.6c0.6,0,0.9-0.2,0.9-0.6V91.9c0-0.4-0.2-0.6-0.9-0.6v-0.6L259.2,90.7L259.2,90.7z M253.6,97.4h6.2c2,0,3.4-0.4,3.4-2
	s-1.5-2-3.4-2h-6.2V97.4z M253.6,104.9h6.2c2.7,0,3.9-0.9,3.9-2.3c0-1.3-1.2-2.3-3.9-2.3h-6.2V104.9z"/>
<path class="st1" d="M307,108.7c0-0.6-0.5-0.7-1.1-0.7h-15.5v-0.6c0.7,0,1-0.2,1-0.6V92c0-0.4-0.2-0.6-1-0.6v-0.6h5.6v0.6
	c-0.6,0-0.9,0.2-0.9,0.6v13H306c0.6,0,1.1-0.4,1.1-0.9h0.6v4.5H307V108.7z"/>
<path class="st1" d="M329.1,107.9v-0.6c0.6,0,0.9-0.2,0.9-0.6V91.9c0-0.4-0.2-0.6-0.9-0.6v-0.6h5.4v0.6c-0.6,0-0.9,0.2-0.9,0.6v14.8
	c0,0.4,0.2,0.6,0.9,0.6v0.6H329.1z"/>
<path class="st1" d="M358.6,107.9v-0.6c0.4,0,0.6-0.2,0.6-0.6V91.9c0-0.4-0.2-0.6-0.6-0.6v-0.6h5.6v0.6c-0.1,0-0.2,0.1-0.2,0.4
	c0,0.2,0.2,0.5,0.6,0.9l9.4,9.8V92c0-0.4-0.2-0.6-0.9-0.6v-0.6h4.9v0.6c-0.4,0-0.6,0.2-0.6,0.6v14.8c0,0.4,0.2,0.6,0.6,0.6v0.6h-5.3
	v-0.6c0.2,0,0.4-0.1,0.4-0.2s-0.1-0.4-0.5-0.7l-9.9-10.4V107c0,0.4,0.2,0.6,0.7,0.6v0.6h-4.9L358.6,107.9L358.6,107.9z"/>
</svg>
