<?xml version="1.0"?>
<svg xmlns="http://www.w3.org/2000/svg" xmlns:xlink="http://www.w3.org/1999/xlink" version="1.1" id="Capa_1" x="0px" y="0px" viewBox="0 0 493.695 493.695" style="enable-background:new 0 0 493.695 493.695;" xml:space="preserve" width="512px" height="512px"><g><g>
	<path d="M463.372,97.243c-0.005-0.251-0.024-0.501-0.073-0.746c-0.001-0.005-0.003-0.009-0.004-0.013   c-0.049-0.24-0.124-0.473-0.213-0.702c-0.026-0.067-0.058-0.131-0.087-0.196c-0.077-0.171-0.165-0.335-0.265-0.495   c-0.037-0.061-0.072-0.122-0.113-0.181c-0.143-0.206-0.3-0.405-0.481-0.587l-93.08-93.078c-0.182-0.182-0.38-0.338-0.586-0.481   c-0.06-0.042-0.122-0.078-0.185-0.116c-0.158-0.098-0.32-0.186-0.488-0.262c-0.067-0.03-0.134-0.062-0.202-0.088   c-0.227-0.089-0.458-0.164-0.696-0.212c-0.006-0.001-0.012-0.004-0.018-0.005c-0.244-0.049-0.494-0.068-0.745-0.074   c-0.028,0-0.056-0.008-0.085-0.008H133.686c-7.804,0-14.152,6.348-14.152,14.15v312.947H48.234c-2.348,0-4.25,1.902-4.25,4.25   c0,60.97,49.603,110.572,110.573,110.572s110.573-49.603,110.573-110.572c0-2.348-1.902-4.25-4.25-4.25H128.033V65.1h144.415   c2.348,0,4.25-1.902,4.25-4.25c0-2.348-1.902-4.25-4.25-4.25H128.033V14.15c0-3.115,2.535-5.65,5.652-5.65h228.115v78.926   c0,7.804,6.349,14.152,14.152,14.152h78.928V363.6h-76.433c-2.348,0-4.25,1.902-4.25,4.25c0,2.348,1.902,4.25,4.25,4.25h76.433   v39.5H327.448c-2.348,0-4.25,1.902-4.25,4.25c0,2.348,1.902,4.25,4.25,4.25h127.433v38.5h-38.433c-2.348,0-4.25,1.902-4.25,4.25   c0,2.348,1.902,4.25,4.25,4.25h38.433v12.443c0,3.116-2.535,5.652-5.652,5.652H133.686c-3.117,0-5.652-2.536-5.652-5.652v-6.127   h136.519c7.857,0,14.25-6.393,14.25-14.25v-11.498c0-2.348-1.902-4.25-4.25-4.25H34.564c-2.348,0-4.25,1.902-4.25,4.25v11.498   c0,7.857,6.393,14.25,14.25,14.25h74.969v6.127c0,7.804,6.349,14.152,14.152,14.152h315.543c7.804,0,14.152-6.349,14.152-14.152   V97.328C463.381,97.299,463.373,97.271,463.372,97.243z M154.558,433.42c-42.19,0-78.479-25.73-94.011-62.32h88.901   c2.348,0,4.25-1.902,4.25-4.25c0-2.348-1.902-4.25-4.25-4.25H57.377c-2.761-8.566-4.42-17.623-4.806-27.002h203.973   C254.31,389.919,209.419,433.42,154.558,433.42z M38.814,459.166v-7.248h231.487v7.248c0,3.171-2.579,5.75-5.75,5.75H44.564   C41.394,464.916,38.814,462.337,38.814,459.166z M370.301,87.426V14.511l39.285,39.284l39.284,39.283h-72.917   C372.836,93.078,370.301,90.543,370.301,87.426z" data-original="#000000" class="active-path" data-old_color="#48230F" fill="#000000"/>
	<path d="M155.939,226.184c5.089-4.537,11.422-10.184,11.422-21.004c0-2.348-1.902-4.25-4.25-4.25s-4.25,1.902-4.25,4.25   c0,7.012-3.785,10.387-8.578,14.66c-5.089,4.537-11.422,10.184-11.422,21.004c0,10.821,6.333,16.469,11.422,21.006   c4.792,4.274,8.578,7.649,8.578,14.662s-3.786,10.388-8.578,14.662c-5.089,4.537-11.422,10.185-11.422,21.006   c0,2.348,1.902,4.25,4.25,4.25s4.25-1.902,4.25-4.25c0-7.013,3.786-10.388,8.578-14.662c5.089-4.537,11.422-10.185,11.422-21.006   c0-10.821-6.333-16.469-11.422-21.006c-4.792-4.274-8.578-7.649-8.578-14.662C147.36,233.832,151.146,230.457,155.939,226.184z" data-original="#000000" class="active-path" data-old_color="#48230F" fill="#000000"/>
	<path d="M210.939,226.184c5.089-4.537,11.422-10.184,11.422-21.004c0-2.348-1.902-4.25-4.25-4.25s-4.25,1.902-4.25,4.25   c0,7.012-3.785,10.387-8.578,14.66c-5.089,4.537-11.422,10.184-11.422,21.004c0,10.821,6.333,16.469,11.422,21.006   c4.792,4.274,8.578,7.649,8.578,14.662s-3.786,10.388-8.578,14.662c-5.089,4.537-11.422,10.185-11.422,21.006   c0,2.348,1.902,4.25,4.25,4.25s4.25-1.902,4.25-4.25c0-7.013,3.786-10.388,8.578-14.662c5.089-4.537,11.422-10.185,11.422-21.006   c0-10.821-6.333-16.469-11.422-21.006c-4.792-4.274-8.578-7.649-8.578-14.662C202.36,233.832,206.146,230.457,210.939,226.184z" data-original="#000000" class="active-path" data-old_color="#48230F" fill="#000000"/>
	<path d="M95.282,291.174c-5.089,4.537-11.422,10.185-11.422,21.006c0,2.348,1.902,4.25,4.25,4.25c2.348,0,4.25-1.902,4.25-4.25   c0-7.013,3.786-10.388,8.578-14.662c5.089-4.537,11.422-10.185,11.422-21.006c0-10.821-6.333-16.469-11.422-21.006   c-4.792-4.274-8.578-7.649-8.578-14.662c0-7.012,3.785-10.387,8.578-14.66c5.089-4.537,11.422-10.184,11.422-21.004   c0-2.348-1.902-4.25-4.25-4.25c-2.348,0-4.25,1.902-4.25,4.25c0,7.012-3.785,10.387-8.578,14.66   c-5.089,4.537-11.422,10.184-11.422,21.004c0,10.821,6.333,16.469,11.422,21.006c4.792,4.274,8.578,7.649,8.578,14.662   S100.074,286.9,95.282,291.174z" data-original="#000000" class="active-path" data-old_color="#48230F" fill="#000000"/>
	<path d="M184.457,137.43h214c2.348,0,4.25-1.902,4.25-4.25c0-2.348-1.902-4.25-4.25-4.25h-214c-2.348,0-4.25,1.902-4.25,4.25   C180.207,135.527,182.109,137.43,184.457,137.43z" data-original="#000000" class="active-path" data-old_color="#48230F" fill="#000000"/>
	<path d="M402.707,176.18c0-2.348-1.902-4.25-4.25-4.25h-214c-2.348,0-4.25,1.902-4.25,4.25c0,2.348,1.902,4.25,4.25,4.25h214   C400.805,180.43,402.707,178.527,402.707,176.18z" data-original="#000000" class="active-path" data-old_color="#48230F" fill="#000000"/>
</g></g> </svg>
