<?xml version="1.0"?>
<svg xmlns="http://www.w3.org/2000/svg" xmlns:xlink="http://www.w3.org/1999/xlink" version="1.1" id="Capa_1" x="0px" y="0px" viewBox="0 0 490.539 490.539" style="enable-background:new 0 0 490.539 490.539;" xml:space="preserve" width="512px" height="512px"><g><g>
	<path d="M202.946,219.533c-22.919,0-43.054,12.117-54.36,30.273c-0.005,0.006-0.008,0.012-0.012,0.019   c-6.098,9.798-9.632,21.347-9.632,33.712c0,35.292,28.712,64.004,64.004,64.004s64.004-28.712,64.004-64.004   S238.238,219.533,202.946,219.533z M202.946,339.041c-30.605,0-55.504-24.899-55.504-55.504c0-9.837,2.583-19.077,7.091-27.098   h40.169c2.348,0,4.25-1.902,4.25-4.25c0-2.348-1.902-4.25-4.25-4.25h-34.299c10.19-12.158,25.477-19.906,42.543-19.906   c26.369,0,48.487,18.491,54.108,43.184h-67.289c-2.348,0-4.25,1.902-4.25,4.25c0,2.348,1.902,4.25,4.25,4.25h68.538   c0.087,1.264,0.146,2.535,0.146,3.82C258.45,314.142,233.551,339.041,202.946,339.041z" data-original="#000000" class="active-path" data-old_color="#FF00DB" fill="#00B159"/>
	<path d="M476.329,104.85l-377.474-0.002c-7.835,0-14.209,6.374-14.209,14.209v24.588H55.827c-7.835,0-14.209,6.374-14.209,14.209   v23.527H14.209C6.374,181.381,0,187.755,0,195.59V371.48c0,7.836,6.374,14.211,14.209,14.211h377.474   c7.835,0,14.21-6.375,14.21-14.211v-23.525h27.408c7.835,0,14.21-6.374,14.21-14.209v-24.588h28.818   c7.835,0,14.21-6.374,14.21-14.209V119.057C490.539,111.223,484.164,104.85,476.329,104.85z M362.238,360.094h-73.015   c-2.348,0-4.25,1.902-4.25,4.25c0,2.348,1.902,4.25,4.25,4.25h69.488c-0.826,2.765-1.394,5.639-1.67,8.598H48.939   c-1.983-21.375-19.058-38.432-40.439-40.39v-26.753h83.218c2.348,0,4.25-1.902,4.25-4.25c0-2.348-1.902-4.25-4.25-4.25H8.5v-71.305   c21.323-2.007,38.338-19.034,40.324-40.363h308.038c1.956,21.435,19.086,38.541,40.53,40.463V336.84   C382.201,338.26,369.189,347.299,362.238,360.094z M397.392,221.805c-16.754-1.859-30.094-15.18-31.987-31.924h26.277   c3.148,0,5.71,2.562,5.71,5.709V221.805z M391.683,181.381H75.574c8.356-7.42,13.695-17.791,14.752-29.236h308.297   c0.344,3.625,1.124,7.122,2.282,10.445h-93.719c-2.348,0-4.25,1.902-4.25,4.25c0,2.348,1.902,4.25,4.25,4.25h97.719   c7.177,11.799,19.658,20.025,34.105,21.362v106.655c-13.823,1.299-25.834,8.91-33.118,19.916V195.59   C405.892,187.755,399.517,181.381,391.683,181.381z M439.011,183.906c-16.644-1.909-29.889-15.13-31.837-31.762h26.127   c3.148,0,5.71,2.561,5.71,5.709V183.906z M433.301,143.645H117.036c4.106-3.391,7.585-7.483,10.268-12.059l61.756,0.002   c2.347,0,4.25-1.902,4.25-4.25c0-2.347-1.902-4.25-4.25-4.25l-57.886-0.002c1.047-3.13,1.748-6.395,2.072-9.738l308.449,0.002   c2.008,21.314,19.025,38.323,40.344,40.318v106.705c-14.761,1.389-27.45,9.977-34.528,22.205V157.854   C447.511,150.018,441.136,143.645,433.301,143.645z M482.039,119.057v26.063c-16.627-1.929-29.854-15.148-31.795-31.771h26.085   C479.478,113.35,482.039,115.91,482.039,119.057z M93.146,119.057c0-3.147,2.562-5.709,5.709-5.709h25.855   c-1.675,13.924-11.498,25.988-25.076,30.297h-6.488V119.057z M50.118,157.854c0-3.148,2.562-5.709,5.709-5.709h25.936   c-1.483,12.964-9.759,24.115-21.986,29.236h-9.658V157.854z M14.209,189.881h26.068c-1.921,16.638-15.146,29.875-31.777,31.814   V195.59C8.5,192.442,11.061,189.881,14.209,189.881z M8.5,371.48v-26.135c16.691,1.893,29.976,15.162,31.893,31.846H14.209   C11.061,377.191,8.5,374.63,8.5,371.48z M391.683,377.191H365.59c1.927-16.641,15.162-29.876,31.803-31.805v26.094   C397.392,374.63,394.831,377.191,391.683,377.191z M433.301,339.455h-26.07c1.928-16.632,15.151-29.862,31.78-31.799v26.09   C439.011,336.893,436.449,339.455,433.301,339.455z M476.329,300.658h-26.06c1.953-16.602,15.163-29.801,31.77-31.736v26.027   C482.039,298.097,479.478,300.658,476.329,300.658z" data-original="#000000" class="active-path" data-old_color="#FF00DB" fill="#00B159"/>
</g></g> </svg>
