<?xml version="1.0"?>
<svg xmlns="http://www.w3.org/2000/svg" xmlns:xlink="http://www.w3.org/1999/xlink" version="1.1" id="Capa_1" x="0px" y="0px" viewBox="0 0 496.5 496.5" style="enable-background:new 0 0 496.5 496.5;" xml:space="preserve" width="512px" height="512px"><g><g>
	<path d="M406.091,139.055l59.297-59.297c1.66-1.659,1.66-4.351,0-6.01c-26.674-26.675-62.14-41.365-99.864-41.365   c-19.07,0-37.557,3.734-54.994,11.104l-15.154-15.154c-10.438-10.438-24.316-16.188-39.079-16.188   c-14.764,0-28.643,5.749-39.08,16.188c-16.015,16.016-20.117,39.491-12.327,59.34L58.384,131.114   c-5.665-3.177-12.189-4.997-19.134-4.997c-21.643,0-39.25,17.607-39.25,39.25c0,18.114,12.337,33.393,29.048,37.897l83.099,245.694   c-14.546,7.647-28.262,16.993-40.826,27.941c-1.336,1.164-1.81,3.035-1.188,4.694c0.621,1.66,2.207,2.76,3.979,2.76h274.685   c1.772,0,3.358-1.1,3.979-2.76c0.622-1.659,0.148-3.53-1.188-4.694c-38.824-33.83-88.591-52.461-140.135-52.461   c-20.416,0-40.55,2.933-59.838,8.566L69.533,190.311c4.765-5.774,7.909-12.93,8.742-20.766l155.138-46.002   c-19.704,51.984-7.25,110.493,32.218,149.962c0.797,0.797,1.878,1.245,3.005,1.245c1.127,0,2.208-0.448,3.005-1.245l59.297-59.297   c9.742,8.643,22.145,13.375,35.278,13.375c14.224,0,27.596-5.539,37.653-15.597c10.058-10.057,15.597-23.429,15.597-37.652   C419.466,161.199,414.733,148.797,406.091,139.055z M208.648,95.423c2.323,3.954,5.179,7.68,8.569,11.07l10.018,10.017   L78.213,160.699c-1.076-9.035-5.227-17.138-11.381-23.225L208.648,95.423z M8.801,169.617h40.023c2.348,0,4.25-1.902,4.25-4.25   c0-2.348-1.902-4.25-4.25-4.25H8.801c2.076-14.951,14.935-26.5,30.449-26.5c16.956,0,30.75,13.794,30.75,30.75   c0,0.211-0.012,0.418-0.016,0.628l-0.007,0.213c0,0.006,0.001,0.013,0.001,0.019c-0.458,16.56-14.061,29.891-30.729,29.891   C23.736,196.117,10.877,184.568,8.801,169.617z M293.745,450.184H188.317c-2.348,0-4.25,1.902-4.25,4.25   c0,2.348,1.902,4.25,4.25,4.25h122.568c9.069,5.034,17.784,10.762,26.052,17.171H85.972c35.802-27.753,79.92-42.915,125.482-42.915   C240.018,432.94,268.012,438.9,293.745,450.184z M119.819,445.113L38.473,204.598c0.26,0.005,0.517,0.02,0.777,0.02   c1.423,0,2.827-0.08,4.211-0.229l34.336,101.416c0.6,1.772,2.253,2.888,4.025,2.888c0.451,0,0.911-0.072,1.363-0.226   c2.223-0.753,3.415-3.165,2.662-5.389L51.811,202.544c3.966-1.344,7.653-3.295,10.939-5.759l80.754,238.768   C135.428,438.266,127.518,441.453,119.819,445.113z M268.684,264.442c-20.606-21.952-32.701-49.649-35.391-78.469   c0.008-0.008,0.018-0.014,0.026-0.021l53.998-53.998c1.66-1.659,1.66-4.351,0-6.01c-1.658-1.66-4.352-1.66-6.01,0l-48.602,48.603   c-0.113-17.156,3.105-34.493,9.851-51.059c0.645-1.583,0.277-3.398-0.932-4.607l-18.397-18.397   c-0.576-0.576-1.133-1.163-1.672-1.762l29.764-29.764c1.66-1.659,1.66-4.351,0-6.01c-1.658-1.66-4.352-1.66-6.01,0l-28.888,28.888   c-11.029-18.008-8.769-41.919,6.805-57.493c8.833-8.833,20.577-13.697,33.07-13.697c12.492,0,24.236,4.864,33.069,13.697l17.2,17.2   c1.245,1.246,3.131,1.594,4.739,0.875c17.124-7.653,35.366-11.535,54.219-11.535c14.111,0,27.885,2.193,40.936,6.408   l-95.153,95.153c-1.66,1.659-1.66,4.351,0,6.01c0.829,0.83,1.917,1.245,3.005,1.245c1.088,0,2.176-0.415,3.005-1.245l97.963-97.963   c15.032,6.072,28.931,14.926,41.047,26.309L268.684,264.442z M397.859,205.977c-8.452,8.452-19.69,13.106-31.644,13.106   c-10.862,0-21.126-3.855-29.254-10.899l63.104-63.104c7.045,8.128,10.899,18.392,10.899,29.255   C410.966,186.287,406.311,197.524,397.859,205.977z" data-original="#000000" class="active-path" data-old_color="#9000FF" fill="#00AEDB"/>
	<path d="M420.255,216.362c-1.658-1.66-4.352-1.66-6.01,0c-1.66,1.659-1.66,4.351,0,6.01l45.5,45.5   c0.829,0.83,1.917,1.245,3.005,1.245s2.176-0.415,3.005-1.245c1.66-1.659,1.66-4.351,0-6.01L420.255,216.362z" data-original="#000000" class="active-path" data-old_color="#9000FF" fill="#00AEDB"/>
	<path d="M368.25,240.117c-2.348,0-4.25,1.902-4.25,4.25v71c0,2.348,1.902,4.25,4.25,4.25s4.25-1.902,4.25-4.25v-71   C372.5,242.02,370.598,240.117,368.25,240.117z" data-original="#000000" class="active-path" data-old_color="#9000FF" fill="#00AEDB"/>
	<path d="M492.25,155.117h-62c-2.348,0-4.25,1.902-4.25,4.25c0,2.348,1.902,4.25,4.25,4.25h62c2.348,0,4.25-1.902,4.25-4.25   C496.5,157.02,494.598,155.117,492.25,155.117z" data-original="#000000" class="active-path" data-old_color="#9000FF" fill="#00AEDB"/>
</g></g> </svg>
